<svg xmlns="http://www.w3.org/2000/svg" xmlns:xlink="http://www.w3.org/1999/xlink" width="1790" height="1790" viewBox="0 0 1790 1790">
  <defs>
    <linearGradient id="linear-gradient" x1="0.693" y1="0.149" x2="0.05" y2="0.069" gradientUnits="objectBoundingBox">
      <stop offset="0" stop-color="#447ee3"/>
      <stop offset="1" stop-color="#0e4964"/>
    </linearGradient>
  </defs>
  <g id="Group_2" data-name="Group 2" transform="translate(-859 -345)">
    <circle id="Ellipse_3" data-name="Ellipse 3" cx="895" cy="895" r="895" transform="translate(859 345)" fill="#ecf4ff"/>
    <path id="Path_4" data-name="Path 4" d="M230.256-713.222H143.973v552.214H76.589V-713.222H-17.09v-60.4H76.589q-22.6-54.235-22.6-101.075a155.661,155.661,0,0,1,9.861-55.879,117.43,117.43,0,0,1,30.2-44.785q20.338-18.9,51.976-29.583t75.19-10.683a330.131,330.131,0,0,1,109.909,18.489q52.8,18.489,103.335,51.359t100.048,78.066q49.51,45.2,100.048,98.61H563.064q-11.5-11.094-30.61-28.967t-44.169-38.211q-25.063-20.338-55.468-41.087a549.514,549.514,0,0,0-64.1-37.6,410.372,410.372,0,0,0-70.054-27.323,263.684,263.684,0,0,0-73.341-10.477q-29.994,0-50.332,6.985t-32.87,19.311A70.134,70.134,0,0,0,124.251-897.5a115.616,115.616,0,0,0-5.341,35.541q0,36.979,20.133,88.338h91.214ZM482.533-489.707q-7.4.822-13.97,1.438T455-487.652q-33.281,0-60.193-11.915a141.7,141.7,0,0,1-46.018-32.048,141.1,141.1,0,0,1-29.377-46.634,152.7,152.7,0,0,1-10.272-55.673A144.53,144.53,0,0,1,314.9-674.6a122.08,122.08,0,0,1,18.078-36.979l-.411-1.643H201.5v-60.4H888.476v60.4H802.193v552.214H734.809V-713.222H579.91l-.411,1.643a133.654,133.654,0,0,1,19.722,25.68,183.858,183.858,0,0,1,15.408,32.664A244.445,244.445,0,0,1,624.7-616.256a207.073,207.073,0,0,1,3.7,39.033,193.7,193.7,0,0,1-10.066,62.042,228.915,228.915,0,0,1-28.35,56.7,270.849,270.849,0,0,1-43.964,49.51A330.354,330.354,0,0,1,489.107-368.5v1.644q20.544,16.024,43.964,38.417T579.5-281.8q23.009,24.242,43.553,48.278t35.335,43.758l-46.429,39.033q-12.737-16.024-32.048-39.238t-43.142-48.483q-23.831-25.269-51.565-50.537a532.468,532.468,0,0,0-57.728-45.812,135.233,135.233,0,0,1-31.021,10.272,162.137,162.137,0,0,1-32.254,3.287,138.136,138.136,0,0,1-35.541-4.52,105.307,105.307,0,0,1-30.4-13.148,67.817,67.817,0,0,1-21.16-21.16q-7.807-12.532-7.807-28.967,0-25.885,19.106-40.06t49.921-14.175a139.81,139.81,0,0,1,45.812,8.012,175.314,175.314,0,0,1,45.4,24.036,134.9,134.9,0,0,0,25.885-8.834A193.737,193.737,0,0,0,484.792-436.5a209.988,209.988,0,0,0,29.172-23.831,168.344,168.344,0,0,0,25.269-31.432,170.452,170.452,0,0,0,17.873-38.828,149.376,149.376,0,0,0,6.779-45.812,166.965,166.965,0,0,0-7.19-48.483,135.985,135.985,0,0,0-21.16-42.526,107.752,107.752,0,0,0-34.924-30.2q-20.955-11.5-48.483-11.5-21.776,0-36.157,6.779a68.21,68.21,0,0,0-23.42,17.462,63.1,63.1,0,0,0-12.737,23.625,91.751,91.751,0,0,0-3.7,25.269,89.207,89.207,0,0,0,5.752,31.432,82.137,82.137,0,0,0,17.051,27.529A84.088,84.088,0,0,0,427.065-557.5q16.846,7.4,38.622,7.4a138.992,138.992,0,0,0,16.846-1.233Z" transform="translate(1318 1823)" fill="url(#linear-gradient)"/>
  </g>
</svg>
