<svg xmlns="http://www.w3.org/2000/svg" xmlns:xlink="http://www.w3.org/1999/xlink" width="6862" height="2480" viewBox="0 0 6862 2480">
  <defs>
    <clipPath id="clip-typography">
      <rect width="6862" height="2480"/>
    </clipPath>
  </defs>
  <g id="typography" clip-path="url(#clip-typography)">
    <rect width="6862" height="2480" fill="#fff"/>
    <path id="Path_31" data-name="Path 31" d="M8,0,283-700h78L634,0H546L473-189H171L98,0ZM322-580,202-269H442ZM889-474q96,0,148.5,50T1090-304V0h-77V-67q-2,3-6,8.5t-19,19a238.345,238.345,0,0,1-31.5,24Q940-5,912.5,3.5A190.246,190.246,0,0,1,856,12q-67,0-119.5-43.5T684-146q0-67,52-110.5T867-300a271.9,271.9,0,0,1,72.5,9.5Q974-281,990-272l16,10v-25q0-34-12.5-57.5T961-378q-20-10-37.5-14a154.487,154.487,0,0,0-34.5-4q-31,0-65.5,10T770-366l-19,9-35-70q8-5,23-13t60-21A322.915,322.915,0,0,1,889-474ZM874-62a145.338,145.338,0,0,0,69-17.5Q976-97,991-114l15-18v-65q-46-33-121-33-53,0-85,23.5T768-146q0,42,31,63T874-62Z" transform="translate(841 1270)"/>
    <path id="Path_32" data-name="Path 32" d="M102.256-381.92v136.136H284.592v49.28H102.256V-49.28H303.072V0H50.512V-431.2H299.376v49.28ZM481.712,7.392q-44.968,0-76.076-29.26T374.528-101.64V-284.592h51.744v174.328q0,34.5,19.1,52.052t49.28,17.556a68.977,68.977,0,0,0,39.116-11.7q17.556-11.7,24.332-23.408l7.392-11.7v-197.12h51.744V0H569.184V-43.736q-1.232,1.848-3.388,5.544t-9.856,12.32A109.344,109.344,0,0,1,539-10.472Q529.76-3.7,514.36,1.848A95.649,95.649,0,0,1,481.712,7.392Zm341.88-299.376a115.125,115.125,0,0,1,20.636,1.848,120.808,120.808,0,0,1,15.708,3.7l4.928,1.848-19.1,46.816q-11.088-6.16-32.648-6.16a59.423,59.423,0,0,0-36.036,12.012q-16.324,12.012-23.1,23.716l-6.16,12.32V0H696.08V-284.592h48.048v43.736a54.784,54.784,0,0,0,3.08-5.544q1.848-3.7,9.24-12.32a123.263,123.263,0,0,1,15.708-15.4q8.316-6.776,22.176-12.32A78.051,78.051,0,0,1,823.592-291.984Zm94.248,43.12q41.888-43.12,104.72-43.12t104.72,43.12q41.888,43.12,41.888,106.568T1127.28-35.728q-41.888,43.12-104.72,43.12T917.84-35.728Q875.952-78.848,875.952-142.3T917.84-248.864ZM954.184-69.916q26.488,29.26,68.376,29.26t68.376-29.26q26.488-29.26,26.488-72.38t-26.488-72.38q-26.488-29.26-68.376-29.26t-68.376,29.26Q927.7-185.416,927.7-142.3T954.184-69.916ZM1228.3-284.592h47.432v41.272q1.232-1.848,3.388-5.236t10.78-11.7a119.141,119.141,0,0,1,18.788-14.784q10.164-6.468,27.1-11.7a121.374,121.374,0,0,1,36.036-5.236q57.9,0,97.944,43.428t40.04,106.26q0,62.832-40.04,106.26T1371.832,7.392q-59.136,0-91.784-42.5V141.68H1228.3Zm51.744,89.32V-89.32q1.232,1.848,3.388,5.236t9.856,11.7A112.824,112.824,0,0,0,1309.924-57.6q8.932,6.468,23.408,11.7a88.95,88.95,0,0,0,30.492,5.236q42.5,0,68.376-29.26t25.872-72.38q0-43.12-25.872-72.38t-68.376-29.26a89.448,89.448,0,0,0-46.2,12.32q-20.944,12.32-28.952,24.64Zm401.632-96.712q59.136,0,91.476,30.8t32.34,73.92V0h-47.432V-41.272q-1.232,1.848-3.7,5.236t-11.7,11.7a146.822,146.822,0,0,1-19.4,14.784q-10.164,6.468-27.1,11.7a117.192,117.192,0,0,1-34.8,5.236q-41.272,0-73.612-26.8T1555.4-89.936q0-41.272,32.032-68.068t80.7-26.8a167.492,167.492,0,0,1,44.66,5.852q21.252,5.852,31.108,11.4l9.856,6.16v-15.4q0-20.944-7.7-35.42t-20.02-20.636a104.013,104.013,0,0,0-23.1-8.624,95.164,95.164,0,0,0-21.252-2.464,145.029,145.029,0,0,0-40.348,6.16q-21.252,6.16-32.956,12.32l-11.7,5.544-21.56-43.12q4.928-3.08,14.168-8.008t36.96-12.936A198.915,198.915,0,0,1,1681.68-291.984Zm-9.24,253.792a89.528,89.528,0,0,0,42.5-10.78q20.328-10.78,29.568-21.252l9.24-11.088v-40.04q-28.336-20.328-74.536-20.328-32.648,0-52.36,14.476t-19.712,37.268q0,25.872,19.1,38.808T1672.44-38.192Z" transform="translate(2409 1260)"/>
    <path id="Path_34" data-name="Path 34" d="M100.815-77.805v-58.7h16.38V0h-16.38V-62.205H32.37V0H15.99V-136.5H32.37v58.7ZM184.47-92.43q19.11,0,31.492,13.26t12.383,34.71q0,3.12-.2,5.265H155.415q.78,10.53,9.653,18.427a31.007,31.007,0,0,0,21.352,7.9,33.035,33.035,0,0,0,14.625-3.315q6.825-3.315,9.75-6.63l2.73-3.315L223.86-15.405q-.585.78-1.658,1.95a59.464,59.464,0,0,1-4.68,4.193,55.427,55.427,0,0,1-7.6,5.363A49.14,49.14,0,0,1,199.485.39,44.817,44.817,0,0,1,186.42,2.34q-20.28,0-33.637-13.65T139.425-45.045q0-20.085,12.577-33.735T184.47-92.43ZM155.8-52.845h56.55q-.585-8.775-8-16.575t-19.89-7.8q-13.065,0-20.28,7.7T155.8-52.845ZM282.75-92.43q18.72,0,28.957,9.75a31.174,31.174,0,0,1,10.238,23.4V0H306.93V-13.065q-.39.585-1.17,1.658a31.173,31.173,0,0,1-3.705,3.7,46.475,46.475,0,0,1-6.143,4.68,35.953,35.953,0,0,1-8.58,3.705A37.1,37.1,0,0,1,276.315,2.34a35.518,35.518,0,0,1-23.3-8.482q-10.237-8.483-10.238-22.328a26.876,26.876,0,0,1,10.14-21.547Q263.055-58.5,278.46-58.5A53.021,53.021,0,0,1,292.6-56.648a46.726,46.726,0,0,1,9.848,3.607l3.12,1.95v-4.875a23.628,23.628,0,0,0-2.437-11.212,14.7,14.7,0,0,0-6.338-6.533,32.927,32.927,0,0,0-7.312-2.73,30.125,30.125,0,0,0-6.727-.78,45.91,45.91,0,0,0-12.773,1.95,57.794,57.794,0,0,0-10.432,3.9l-3.7,1.755-6.825-13.65q1.56-.975,4.485-2.535t11.7-4.1A62.968,62.968,0,0,1,282.75-92.43Zm-2.925,80.34A28.341,28.341,0,0,0,293.28-15.5q6.435-3.412,9.36-6.728l2.925-3.51V-38.415q-8.97-6.435-23.6-6.435-10.335,0-16.575,4.583t-6.24,11.8q0,8.19,6.045,12.285A25.458,25.458,0,0,0,279.825-12.09Zm104.52-80.34a40,40,0,0,1,10.628,1.365,32.453,32.453,0,0,1,8.19,3.315,45.246,45.246,0,0,1,5.655,4,32.265,32.265,0,0,1,3.607,3.412l.975,1.365V-147.42h16.38V0H414.765V-13.065q-.39.585-1.072,1.658a26.522,26.522,0,0,1-3.413,3.7,40.152,40.152,0,0,1-5.85,4.68A33.745,33.745,0,0,1,395.85.683,39.393,39.393,0,0,1,384.345,2.34q-18.33,0-31.005-13.748T340.665-45.045q0-19.89,12.675-33.638T384.345-92.43ZM413.4-28.47V-61.62q-.39-.585-1.073-1.658a37.308,37.308,0,0,0-3.12-3.8,33.02,33.02,0,0,0-5.265-4.778,30.2,30.2,0,0,0-7.41-3.7,28.159,28.159,0,0,0-9.652-1.658q-13.26,0-21.548,9.263t-8.288,22.913q0,13.65,8.19,22.913T386.88-12.87a29.746,29.746,0,0,0,9.652-1.56,24.651,24.651,0,0,0,7.507-3.9,53.031,53.031,0,0,0,5.168-4.68,26.1,26.1,0,0,0,3.217-3.9ZM461.175,0V-90.09h16.38V0Zm.39-111.15a10.673,10.673,0,0,1-3.315-7.8,10.673,10.673,0,0,1,3.315-7.8,10.673,10.673,0,0,1,7.8-3.315,10.673,10.673,0,0,1,7.8,3.315,10.673,10.673,0,0,1,3.315,7.8,10.673,10.673,0,0,1-3.315,7.8,10.673,10.673,0,0,1-7.8,3.315A10.673,10.673,0,0,1,461.565-111.15ZM548.34-92.43q14.235,0,24.083,9.263t9.848,25.252V0H565.89V-55.185q0-10.92-6.045-16.477t-15.6-5.558a20.614,20.614,0,0,0-7.9,1.56,22.173,22.173,0,0,0-6.337,3.8,48.627,48.627,0,0,0-4.485,4.485,31.862,31.862,0,0,0-2.925,3.8l-.78,1.56V0H505.44V-90.09h15.21v12.675q.39-.585,1.073-1.658a29.022,29.022,0,0,1,3.12-3.608,32.185,32.185,0,0,1,5.363-4.485,33.89,33.89,0,0,1,7.8-3.607A31.888,31.888,0,0,1,548.34-92.43ZM673.725,1.17V-11.31a34.288,34.288,0,0,1-5.167,5.557A36.026,36.026,0,0,1,658.905-.39,37.017,37.017,0,0,1,644.67,2.34q-18.33,0-31.005-13.748T600.99-45.045q0-19.89,12.675-33.638T644.67-92.43a37.059,37.059,0,0,1,17.16,3.9q7.605,3.9,10.53,7.8l2.73,3.705V-90.09H690.1V.39q0,22.425-13.357,34.613T642.72,47.19a51.442,51.442,0,0,1-20.767-4.29q-9.848-4.29-14.333-8.58l-4.29-4.29,9.945-12.285a14.91,14.91,0,0,0,1.267,1.56,44.006,44.006,0,0,0,3.8,3.412,46.637,46.637,0,0,0,6.045,4.29,38.789,38.789,0,0,0,8.092,3.412,34,34,0,0,0,10.237,1.56q14.625,0,22.815-7.9T673.725,1.17Zm0-29.25V-62.01q-.39-.585-1.072-1.658a32.8,32.8,0,0,0-3.12-3.7,31.7,31.7,0,0,0-5.265-4.582,32.4,32.4,0,0,0-7.508-3.607,28.425,28.425,0,0,0-9.555-1.658q-13.455,0-21.645,9.263t-8.19,22.913q0,13.65,8.19,22.913t21.645,9.263a29.746,29.746,0,0,0,9.652-1.56,26.125,26.125,0,0,0,7.508-3.8,52.307,52.307,0,0,0,5.167-4.485,23.19,23.19,0,0,0,3.218-3.8Zm35.49,11.505,11.31-10.53q.39.585,1.17,1.56t3.315,3.51a35.769,35.769,0,0,0,5.46,4.485,31.783,31.783,0,0,0,7.7,3.51,30.922,30.922,0,0,0,9.652,1.56A29.5,29.5,0,0,0,761.378-15.5q5.948-3.022,5.948-8.093a10.323,10.323,0,0,0-4.875-8.97q-4.875-3.315-15.6-5.46-15.8-3.12-24.375-9.847T713.9-66.5q0-10.335,9.36-18.135t23.79-7.8a46.621,46.621,0,0,1,17.745,3.413q8.385,3.413,11.9,6.728l3.7,3.51L769.665-67.665a28.608,28.608,0,0,0-2.828-2.828q-1.852-1.657-7.8-4.387a28.509,28.509,0,0,0-11.992-2.73q-8.19,0-12.675,3.413t-4.485,8.092q0,5.07,5.167,8.19t16.673,5.46q15.015,3.315,23.4,9.555t8.385,18.915q0,12.285-10.725,19.305t-24.96,7.02A48.124,48.124,0,0,1,734.175.39a40.773,40.773,0,0,1-10.92-4.778,89.227,89.227,0,0,1-7.6-5.558,34.441,34.441,0,0,1-4.875-4.68Z" transform="translate(841 1924)"/>
    <path id="Path_33" data-name="Path 33" d="M52.455-71.37Q65.91-71.37,73.32-78t7.41-18.135q0-11.5-7.41-18.135T52.455-120.9H32.37v49.53ZM15.99,0V-136.5H51.48q20.475,0,33.053,11.115T97.11-96.135a39.82,39.82,0,0,1-3.217,16.38A36.014,36.014,0,0,1,86.58-68.543a38.32,38.32,0,0,1-9.458,6.728,46.706,46.706,0,0,1-8.287,3.51q-2.925.78-5.07,1.17L101.6,0H81.9L45.045-55.77H32.37V0ZM159.12-92.43q19.11,0,31.493,13.26t12.382,34.71q0,3.12-.195,5.265H130.065q.78,10.53,9.652,18.427a31.007,31.007,0,0,0,21.353,7.9A33.035,33.035,0,0,0,175.7-16.185q6.825-3.315,9.75-6.63l2.73-3.315L198.51-15.405q-.585.78-1.658,1.95a59.47,59.47,0,0,1-4.68,4.193A55.427,55.427,0,0,1,184.568-3.9,49.139,49.139,0,0,1,174.135.39,44.817,44.817,0,0,1,161.07,2.34q-20.28,0-33.638-13.65T114.075-45.045q0-20.085,12.577-33.735T159.12-92.43ZM130.455-52.845h56.55q-.585-8.775-7.995-16.575t-19.89-7.8q-13.065,0-20.28,7.7T130.455-52.845ZM288.21,1.17V-11.31a34.288,34.288,0,0,1-5.168,5.557A36.025,36.025,0,0,1,273.39-.39a37.017,37.017,0,0,1-14.235,2.73q-18.33,0-31.005-13.748T215.475-45.045q0-19.89,12.675-33.638T259.155-92.43a37.059,37.059,0,0,1,17.16,3.9q7.6,3.9,10.53,7.8l2.73,3.705V-90.09H304.59V.39q0,22.425-13.358,34.613T257.2,47.19a51.442,51.442,0,0,1-20.768-4.29q-9.848-4.29-14.333-8.58l-4.29-4.29,9.945-12.285a14.924,14.924,0,0,0,1.268,1.56,44.007,44.007,0,0,0,3.8,3.412,46.637,46.637,0,0,0,6.045,4.29,38.789,38.789,0,0,0,8.092,3.412A34,34,0,0,0,257.2,31.98q14.625,0,22.815-7.9T288.21,1.17Zm0-29.25V-62.01q-.39-.585-1.073-1.658a32.8,32.8,0,0,0-3.12-3.7,31.694,31.694,0,0,0-5.265-4.582,32.4,32.4,0,0,0-7.508-3.607,28.426,28.426,0,0,0-9.555-1.658q-13.455,0-21.645,9.263t-8.19,22.913q0,13.65,8.19,22.913T261.69-12.87a29.746,29.746,0,0,0,9.652-1.56,26.125,26.125,0,0,0,7.507-3.8,52.307,52.307,0,0,0,5.168-4.485,23.194,23.194,0,0,0,3.217-3.8ZM363.48,2.34q-14.235,0-24.082-9.263T329.55-32.175V-90.09h16.38v55.185q0,10.92,6.045,16.478t15.6,5.558a21.835,21.835,0,0,0,12.383-3.705q5.557-3.7,7.7-7.41l2.34-3.7v-62.4h16.38V0H391.17V-13.845q-.39.585-1.073,1.755a29.866,29.866,0,0,1-3.12,3.9,34.614,34.614,0,0,1-5.362,4.875,31.048,31.048,0,0,1-7.8,3.9A30.278,30.278,0,0,1,363.48,2.34ZM434.85,0V-147.42h16.38V0Zm80.535-92.43q18.72,0,28.958,9.75a31.174,31.174,0,0,1,10.237,23.4V0H539.565V-13.065q-.39.585-1.17,1.658a31.165,31.165,0,0,1-3.705,3.7,46.48,46.48,0,0,1-6.142,4.68,35.954,35.954,0,0,1-8.58,3.705A37.1,37.1,0,0,1,508.95,2.34a35.518,35.518,0,0,1-23.3-8.482Q475.41-14.625,475.41-28.47a26.876,26.876,0,0,1,10.14-21.547Q495.69-58.5,511.095-58.5a53.021,53.021,0,0,1,14.138,1.853,46.727,46.727,0,0,1,9.847,3.607l3.12,1.95v-4.875a23.628,23.628,0,0,0-2.437-11.212,14.7,14.7,0,0,0-6.337-6.533,32.928,32.928,0,0,0-7.312-2.73,30.125,30.125,0,0,0-6.728-.78,45.909,45.909,0,0,0-12.772,1.95,57.793,57.793,0,0,0-10.433,3.9l-3.7,1.755-6.825-13.65q1.56-.975,4.485-2.535t11.7-4.1A62.968,62.968,0,0,1,515.385-92.43ZM512.46-12.09A28.341,28.341,0,0,0,525.915-15.5q6.435-3.412,9.36-6.728l2.925-3.51V-38.415Q529.23-44.85,514.6-44.85q-10.335,0-16.575,4.583t-6.24,11.8q0,8.19,6.045,12.285A25.458,25.458,0,0,0,512.46-12.09ZM619.9-92.43a36.443,36.443,0,0,1,6.532.585,38.238,38.238,0,0,1,4.972,1.17l1.56.585-6.045,14.82q-3.51-1.95-10.335-1.95a18.811,18.811,0,0,0-11.408,3.8,26.172,26.172,0,0,0-7.312,7.507l-1.95,3.9V0H579.54V-90.09h15.21v13.845A17.335,17.335,0,0,0,595.725-78a24.045,24.045,0,0,1,2.925-3.9,39.018,39.018,0,0,1,4.972-4.875,26.986,26.986,0,0,1,7.02-3.9A24.707,24.707,0,0,1,619.9-92.43Z" transform="translate(841 2180)"/>
    <line id="Line_1" data-name="Line 1" x2="1767" transform="translate(841.5 1546.5)" fill="none" stroke="#707070" stroke-width="27"/>
  </g>
</svg>
