<svg xmlns="http://www.w3.org/2000/svg" xmlns:xlink="http://www.w3.org/1999/xlink" width="6862" height="2480" viewBox="0 0 6862 2480">
  <defs>
    <linearGradient id="linear-gradient" x1="0.693" y1="0.149" x2="0.05" y2="0.069" gradientUnits="objectBoundingBox">
      <stop offset="0" stop-color="#447ee3"/>
      <stop offset="1" stop-color="#0e4964"/>
    </linearGradient>
    <clipPath id="clip-white">
      <rect width="6862" height="2480"/>
    </clipPath>
  </defs>
  <g id="white" clip-path="url(#clip-white)">
    <rect width="6862" height="2480" fill="#fff"/>
    <path id="Path_30" data-name="Path 30" d="M361.984-159.488q0-23.3-8.064-41.216t-27.776-33.152a272.463,272.463,0,0,0-36.288-24.192q-16.576-8.96-49.728-24.192t-53.76-25.984q-20.608-10.752-45.7-28.672T101.7-372.288Q87.808-389.76,77.952-415.744T68.1-473.088q0-61.824,48.832-113.344t132.16-51.52a214.362,214.362,0,0,1,63.616,9.408q30.464,9.408,50.624,22.848a331.073,331.073,0,0,1,35.392,26.88q15.232,13.44,22.4,23.3l6.272,8.96-56.448,45.7q-1.792-2.688-5.376-7.168t-15.232-15.68a169.783,169.783,0,0,0-24.64-19.712q-12.992-8.512-34.048-15.68a131.277,131.277,0,0,0-42.56-7.168q-48.384,0-77.056,28.224t-28.672,64.96q0,23.3,8.512,40.768t30.464,33.152a331.933,331.933,0,0,0,41.216,25.536q19.264,9.856,59.584,28.672t65.408,34.048a273.622,273.622,0,0,1,47.488,36.736,130.076,130.076,0,0,1,32.7,49.728q10.3,28.224,10.3,64.96,0,75.264-55.1,122.752T244.608,10.752q-41.216,0-77.5-13.44t-57.792-32.7A312.209,312.209,0,0,1,72.576-73.92q-15.232-19.264-21.5-32.7L44.8-120.064,107.52-157.7q1.792,3.584,4.928,10.3t14.784,23.3a177.2,177.2,0,0,0,25.984,29.568q14.336,12.992,38.976,23.3a134.48,134.48,0,0,0,52.416,10.3q48.384,0,82.88-26.432T361.984-159.488ZM756.224-424.7q65.408,0,110.656,42.56t45.248,116.032V0H836.864V-253.568q0-50.176-27.776-75.712t-71.68-25.536a94.719,94.719,0,0,0-36.288,7.168Q683.648-340.48,672-330.176a223.443,223.443,0,0,0-20.608,20.608,146.375,146.375,0,0,0-13.44,17.472l-3.584,7.168V0H559.1V-677.376h75.264v313.6Q677.376-424.7,756.224-424.7ZM1040.256,0V-413.952h75.264V0Zm1.792-510.72q-15.232-15.232-15.232-35.84t15.232-35.84q15.232-15.232,35.84-15.232t35.84,15.232q15.232,15.232,15.232,35.84t-15.232,35.84q-15.232,15.232-35.84,15.232T1042.048-510.72ZM1522.3,0,1335.04-200.7V0h-75.264V-677.376h75.264v447.1l177.408-183.68h98.56L1417.472-218.624,1627.136,0Zm128.128-76.16,51.968-48.384q1.792,2.688,5.376,7.168t15.232,16.128A164.347,164.347,0,0,0,1748.1-80.64q13.44,8.96,35.392,16.128a142.083,142.083,0,0,0,44.352,7.168q34.944,0,62.272-13.888t27.328-37.184q0-25.984-22.4-41.216t-71.68-25.088q-72.576-14.336-112-45.248t-39.424-85.568q0-47.488,43.008-83.328t109.312-35.84a214.217,214.217,0,0,1,81.536,15.68q38.528,15.68,54.656,30.912l17.024,16.128-49.28,51.072A131.428,131.428,0,0,0,1915.2-323.9q-8.512-7.616-35.84-20.16t-55.1-12.544q-37.632,0-58.24,15.68t-20.608,37.184q0,23.3,23.744,37.632t76.608,25.088q68.992,15.232,107.52,43.9t38.528,86.912q0,56.448-49.28,88.7T1827.84,10.752a221.126,221.126,0,0,1-62.72-8.96q-30.464-8.96-50.176-21.952A409.977,409.977,0,0,1,1680-45.7q-15.232-12.544-22.4-21.5ZM2298.24-424.7q65.408,0,110.656,42.56t45.248,116.032V0H2378.88V-253.568q0-50.176-27.776-75.712t-71.68-25.536a94.72,94.72,0,0,0-36.288,7.168q-17.472,7.168-29.12,17.472a223.442,223.442,0,0,0-20.608,20.608,146.367,146.367,0,0,0-13.44,17.472l-3.584,7.168V0H2101.12V-677.376h75.264v313.6Q2219.392-424.7,2298.24-424.7Zm434.56,0q86.016,0,133.056,44.8t47.04,107.52V0H2843.9V-60.032q-1.792,2.688-5.376,7.616T2821.5-35.392a213.575,213.575,0,0,1-28.224,21.5Q2778.5-4.48,2753.856,3.136a170.459,170.459,0,0,1-50.624,7.616q-60.032,0-107.072-38.976t-47.04-102.592q0-60.032,46.592-99.008T2713.088-268.8a243.626,243.626,0,0,1,64.96,8.512q30.912,8.512,45.248,16.576l14.336,8.96v-22.4q0-30.464-11.2-51.52t-29.12-30.016a151.29,151.29,0,0,0-33.6-12.544,138.423,138.423,0,0,0-30.912-3.584q-27.776,0-58.688,8.96t-47.936,17.92l-17.024,8.064-31.36-62.72q7.168-4.48,20.608-11.648t53.76-18.816A289.329,289.329,0,0,1,2732.8-424.7ZM2719.36-55.552a130.224,130.224,0,0,0,61.824-15.68q29.568-15.68,43.008-30.912l13.44-16.128v-58.24q-41.216-29.568-108.416-29.568-47.488,0-76.16,21.056t-28.672,54.208q0,37.632,27.776,56.448T2719.36-55.552Z" transform="translate(3061 1582)"/>
    <g id="Group_2" data-name="Group 2" transform="translate(-28)">
      <circle id="Ellipse_3" data-name="Ellipse 3" cx="895" cy="895" r="895" transform="translate(859 345)" fill="#ecf4ff"/>
      <path id="Path_4" data-name="Path 4" d="M230.256-713.222H143.973v552.214H76.589V-713.222H-17.09v-60.4H76.589q-22.6-54.235-22.6-101.075a155.661,155.661,0,0,1,9.861-55.879,117.43,117.43,0,0,1,30.2-44.785q20.338-18.9,51.976-29.583t75.19-10.683a330.131,330.131,0,0,1,109.909,18.489q52.8,18.489,103.335,51.359t100.048,78.066q49.51,45.2,100.048,98.61H563.064q-11.5-11.094-30.61-28.967t-44.169-38.211q-25.063-20.338-55.468-41.087a549.514,549.514,0,0,0-64.1-37.6,410.372,410.372,0,0,0-70.054-27.323,263.684,263.684,0,0,0-73.341-10.477q-29.994,0-50.332,6.985t-32.87,19.311A70.134,70.134,0,0,0,124.251-897.5a115.616,115.616,0,0,0-5.341,35.541q0,36.979,20.133,88.338h91.214ZM482.533-489.707q-7.4.822-13.97,1.438T455-487.652q-33.281,0-60.193-11.915a141.7,141.7,0,0,1-46.018-32.048,141.1,141.1,0,0,1-29.377-46.634,152.7,152.7,0,0,1-10.272-55.673A144.53,144.53,0,0,1,314.9-674.6a122.08,122.08,0,0,1,18.078-36.979l-.411-1.643H201.5v-60.4H888.476v60.4H802.193v552.214H734.809V-713.222H579.91l-.411,1.643a133.654,133.654,0,0,1,19.722,25.68,183.858,183.858,0,0,1,15.408,32.664A244.445,244.445,0,0,1,624.7-616.256a207.073,207.073,0,0,1,3.7,39.033,193.7,193.7,0,0,1-10.066,62.042,228.915,228.915,0,0,1-28.35,56.7,270.849,270.849,0,0,1-43.964,49.51A330.354,330.354,0,0,1,489.107-368.5v1.644q20.544,16.024,43.964,38.417T579.5-281.8q23.009,24.242,43.553,48.278t35.335,43.758l-46.429,39.033q-12.737-16.024-32.048-39.238t-43.142-48.483q-23.831-25.269-51.565-50.537a532.468,532.468,0,0,0-57.728-45.812,135.233,135.233,0,0,1-31.021,10.272,162.137,162.137,0,0,1-32.254,3.287,138.136,138.136,0,0,1-35.541-4.52,105.307,105.307,0,0,1-30.4-13.148,67.817,67.817,0,0,1-21.16-21.16q-7.807-12.532-7.807-28.967,0-25.885,19.106-40.06t49.921-14.175a139.81,139.81,0,0,1,45.812,8.012,175.314,175.314,0,0,1,45.4,24.036,134.9,134.9,0,0,0,25.885-8.834A193.737,193.737,0,0,0,484.792-436.5a209.988,209.988,0,0,0,29.172-23.831,168.344,168.344,0,0,0,25.269-31.432,170.452,170.452,0,0,0,17.873-38.828,149.376,149.376,0,0,0,6.779-45.812,166.965,166.965,0,0,0-7.19-48.483,135.985,135.985,0,0,0-21.16-42.526,107.752,107.752,0,0,0-34.924-30.2q-20.955-11.5-48.483-11.5-21.776,0-36.157,6.779a68.21,68.21,0,0,0-23.42,17.462,63.1,63.1,0,0,0-12.737,23.625,91.751,91.751,0,0,0-3.7,25.269,89.207,89.207,0,0,0,5.752,31.432,82.137,82.137,0,0,0,17.051,27.529A84.088,84.088,0,0,0,427.065-557.5q16.846,7.4,38.622,7.4a138.992,138.992,0,0,0,16.846-1.233Z" transform="translate(1318 1823)" fill="url(#linear-gradient)"/>
    </g>
  </g>
</svg>
