<svg xmlns="http://www.w3.org/2000/svg" width="1902" height="1903" viewBox="0 0 1902 1903">
  <g id="Group_7" data-name="Group 7" transform="translate(-2678 -7884)">
    <g id="Ellipse_7" data-name="Ellipse 7" transform="translate(2678 7884)" fill="#fff8e6" stroke="#707070" stroke-width="1">
      <ellipse cx="951" cy="951.5" rx="951" ry="951.5" stroke="none"/>
      <ellipse cx="951" cy="951.5" rx="950.5" ry="951" fill="none"/>
    </g>
    <g id="home" transform="translate(3222 8429.947)">
      <g id="Group_6" data-name="Group 6" transform="translate(1 0.053)">
        <g id="Group_5" data-name="Group 5">
          <path id="Path_23" data-name="Path 23" d="M178.3,38.977a19.928,19.928,0,0,0-26.12.2l-54.419,48.7V81.5a13.52,13.52,0,0,0-27.039,0v30.6L48.187,132.266a13.52,13.52,0,0,0,18.035,20.145l99.142-88.746,99.142,88.746a13.52,13.52,0,1,0,18.035-20.145Z" transform="translate(23.999 19.903)"/>
          <path id="Path_24" data-name="Path 24" d="M236.547,119.52a13.519,13.519,0,0,0-13.52,13.519v94.64H87.826v-94.64a13.519,13.519,0,0,0-27.039,0V236.265A18.7,18.7,0,0,0,79.716,254.72H231.139a18.741,18.741,0,0,0,18.929-18.5V133.039A13.522,13.522,0,0,0,236.547,119.52Z" transform="translate(33.938 69.761)"/>
          <path id="Path_25" data-name="Path 25" d="M155.427,221.92a94.64,94.64,0,1,0,94.64,94.64A94.64,94.64,0,0,0,155.427,221.92Zm-67.6,94.64a67.72,67.72,0,0,1,54.08-66.248v58.582l-50.024,30A66.656,66.656,0,0,1,87.826,316.56Zm17.989,45.518,47.515-28.509,39.316,39.316A66.952,66.952,0,0,1,105.815,362.077Zm105.949-8.31-42.818-42.805v-60.65a67.477,67.477,0,0,1,42.818,103.455Z" transform="translate(33.938 129.601)"/>
          <path id="Path_26" data-name="Path 26" d="M591.507,223.466v-46.28a21.335,21.335,0,0,0-21.321-21.321H531.707a21.335,21.335,0,0,0-21.321,21.321v46.28H483.346V138.7a23.417,23.417,0,0,0-23.39-23.39H425.614a23.419,23.419,0,0,0-23.389,23.39v84.771H375.187V74.745A27.04,27.04,0,0,0,348.146,47.7H321.106a27.04,27.04,0,0,0-27.041,27.041V223.466H280.546a13.52,13.52,0,0,1-13.52-13.52V47.706a13.52,13.52,0,0,0-27.039,0v162.24a40.56,40.56,0,0,0,40.56,40.56H591.508a13.52,13.52,0,1,0,0-27.041Zm-243.36,0H321.106V74.745h27.041Zm108.161,0H429.266v-81.12h27.041Zm108.159,0H537.427v-40.56h27.041v40.56Z" transform="translate(138.659 19.894)"/>
          <path id="Path_27" data-name="Path 27" d="M591.507,394.133H280.545a13.519,13.519,0,0,1-13.52-13.519V359.171l44.521-44.521a13.8,13.8,0,0,1,19.117,0L346.51,330.5a40.559,40.559,0,0,0,57.351,0l56.405-56.405a13.8,13.8,0,0,1,19.117,0l15.845,15.86a40.639,40.639,0,0,0,57.351,0l48.484-48.484a13.52,13.52,0,0,0-19.117-19.117l-48.484,48.469a13.521,13.521,0,0,1-19.117,0L498.5,254.973a41.532,41.532,0,0,0-57.351,0l-56.405,56.405a13.521,13.521,0,0,1-19.117,0L349.8,295.533a41.547,41.547,0,0,0-57.366,0l-25.4,25.4V218.374a13.52,13.52,0,1,0-27.039,0v162.24a40.56,40.56,0,0,0,40.56,40.56H591.508a13.52,13.52,0,0,0,0-27.041Z" transform="translate(138.659 119.628)"/>
          <path id="Path_28" data-name="Path 28" d="M812.285,628.112V75.021A71.654,71.654,0,0,0,744.685.053h-676a71.656,71.656,0,0,0-67.6,74.968V628.112a71.657,71.657,0,0,0,67.6,74.982H285v27.041h-54.08a54.08,54.08,0,0,0-54.08,54.08v13.52a13.519,13.519,0,0,0,13.519,13.519H623.006a13.519,13.519,0,0,0,13.519-13.519v-13.52a54.08,54.08,0,0,0-54.08-54.08h-54.08V703.094h216.32A71.655,71.655,0,0,0,812.285,628.112ZM582.445,757.175a27.04,27.04,0,0,1,27.041,27.041h-405.6a27.04,27.04,0,0,1,27.041-27.041Zm-270.4-27.041V703.094H501.326v27.041Zm432.64-54.08h-676a44.779,44.779,0,0,1-40.56-47.942V594.935H785.247v33.178A44.78,44.78,0,0,1,744.685,676.055Zm40.56-601.034V567.894H28.125V75.021a44.766,44.766,0,0,1,40.56-47.929h676A44.765,44.765,0,0,1,785.245,75.021Z" transform="translate(-1 -0.053)"/>
        </g>
      </g>
    </g>
  </g>
</svg>
