<svg xmlns="http://www.w3.org/2000/svg" width="1902" height="1903" viewBox="0 0 1902 1903">
  <g id="Group_4" data-name="Group 4" transform="translate(-3440 -4807)">
    <g id="Ellipse_6" data-name="Ellipse 6" transform="translate(3440 4807)" fill="#e6f7ff" stroke="#707070" stroke-width="1">
      <ellipse cx="951" cy="951.5" rx="951" ry="951.5" stroke="none"/>
      <ellipse cx="951" cy="951.5" rx="950.5" ry="951" fill="none"/>
    </g>
    <path id="closed-lock" d="M707.728,299.351H673.951V155.057C673.951,69.552,604.4,0,518.9,0H298.471c-85.5,0-155.055,69.552-155.055,155.057V299.351H109.669A81.444,81.444,0,0,0,28.23,380.792v405.82a81.445,81.445,0,0,0,81.439,81.439H707.728a81.445,81.445,0,0,0,81.439-81.439V380.792A81.444,81.444,0,0,0,707.728,299.351ZM468.585,619.07v84.786a59.888,59.888,0,0,1-119.775,0V619.07c-24.2-18.247-40.059-46.949-40.059-79.6a99.949,99.949,0,1,1,199.9,0C508.648,572.121,492.786,600.823,468.585,619.07Zm85.592-319.719H263.191V155.057a35.311,35.311,0,0,1,35.28-35.281H518.9a35.311,35.311,0,0,1,35.281,35.281V299.351Z" transform="translate(3982.77 5324)" opacity="0.77"/>
  </g>
</svg>
