<svg xmlns="http://www.w3.org/2000/svg" xmlns:xlink="http://www.w3.org/1999/xlink" width="6862" height="2480" viewBox="0 0 6862 2480">
  <defs>
    <clipPath id="clip-typography_1">
      <rect width="6862" height="2480"/>
    </clipPath>
  </defs>
  <g id="typography_1" data-name="typography – 1" clip-path="url(#clip-typography_1)">
    <rect width="6862" height="2480" fill="#fff"/>
    <path id="Path_38" data-name="Path 38" d="M234.956-60.4a149.811,149.811,0,0,0,40.166-5.436q19.63-5.436,32.314-12.986a245.52,245.52,0,0,0,22.65-15.1q9.966-7.55,14.194-12.986l4.832-5.436,48.32,47.716q-2.416,3.02-6.644,7.852t-19.63,17.214A211.64,211.64,0,0,1,338.24-17.818Q320.724-8.456,292.94-.6a212.2,212.2,0,0,1-57.984,7.852q-91.808,0-153.114-62.514T20.536-211.4q0-93.62,61.306-156.134t153.114-62.514A216.465,216.465,0,0,1,289.92-423.1q26.576,6.946,44.092,16.61a323.242,323.242,0,0,1,31.106,19.328q13.59,9.664,20.234,16.308l6.04,7.248-48.924,47.716q-1.812-1.812-4.53-5.134T324.65-332.2A168.646,168.646,0,0,0,302.6-346.092q-11.476-6.04-29.9-11.174a139.964,139.964,0,0,0-37.75-5.134q-61,0-100.868,44.092T94.224-211.4q0,62.816,39.864,106.908T234.956-60.4ZM469.61-250.056Q514-293.544,578.028-293.544t108.418,43.488q44.394,43.488,44.394,106.908,0,62.816-44.394,106.606T578.028,7.248Q514,7.248,469.61-36.542T425.216-143.148Q425.216-206.568,469.61-250.056Zm51.038,165.5q21.744,24.16,57.38,24.16t57.38-24.16q21.744-24.16,21.744-58.588t-21.744-58.588q-21.744-24.16-57.38-24.16t-57.38,24.16Q498.9-177.576,498.9-143.148T520.648-84.56ZM792.448,0V-456.624h72.48V0ZM970.93-250.056q44.394-43.488,108.418-43.488t108.418,43.488q44.394,43.488,44.394,106.908,0,62.816-44.394,106.606T1079.348,7.248q-64.024,0-108.418-43.79T926.536-143.148Q926.536-206.568,970.93-250.056Zm51.038,165.5q21.744,24.16,57.38,24.16t57.38-24.16q21.744-24.16,21.744-58.588t-21.744-58.588q-21.744-24.16-57.38-24.16t-57.38,24.16q-21.744,24.16-21.744,58.588T1021.968-84.56Zm368.44,91.808q-43.488,0-74.292-29.294t-30.8-78.822V-286.3h72.48v165.5q0,60.4,56.776,60.4a58.105,58.105,0,0,0,31.106-8.758q14.194-8.758,19.63-17.818l6.04-8.456V-286.3h72.48V0h-67.648V-41.676q-1.208,1.812-3.322,5.134t-9.966,11.778a106.1,106.1,0,0,1-16.912,14.8q-9.06,6.342-24.16,11.778A92.023,92.023,0,0,1,1390.408,7.248Zm372.668-300.792a124.556,124.556,0,0,1,23.858,2.416,133.86,133.86,0,0,1,19.026,4.832l6.644,1.812-25.368,65.232q-13.288-6.644-34.428-6.644a67.061,67.061,0,0,0-35.334,9.664q-16.006,9.664-22.65,19.328l-6.04,9.664V0H1616.3V-286.3h68.856v41.676q1.208-1.812,3.02-5.134t9.06-11.778a106.214,106.214,0,0,1,15.4-14.8q8.154-6.342,21.744-11.778A76.53,76.53,0,0,1,1763.076-293.544ZM1824.684-44.7l40.468-52.548a131.006,131.006,0,0,0,11.778,11.476q7.55,6.644,30.2,18.12t44.394,11.476q23.556,0,38.958-6.644t15.4-19.328q0-13.288-10.872-18.724t-45.9-12.684q-106.3-22.348-106.3-90.6,0-35.636,33.522-62.514t89.694-26.878a179.192,179.192,0,0,1,55.87,8.758q26.878,8.758,39.562,17.818l12.08,8.456-36.24,53.152q-32.616-24.764-71.272-24.764-21.744,0-36.844,7.248t-15.1,19.932q0,12.08,13.288,17.818t54.36,14.194q48.32,10.268,72.782,29.6t24.462,60.4q0,37.448-35.334,62.816T1953.94,7.248a189.785,189.785,0,0,1-45.6-5.436q-22.046-5.436-36.542-12.986a262.9,262.9,0,0,1-25.67-15.1q-11.174-7.55-16.61-12.986Z" transform="translate(447 940)"/>
    <rect id="Rectangle_1" data-name="Rectangle 1" width="849" height="849" transform="translate(447 1240)" fill="#447ee3"/>
    <rect id="Rectangle_2" data-name="Rectangle 2" width="849" height="849" transform="translate(2435 1240)" fill="#ecf4ff"/>
    <rect id="Rectangle_3" data-name="Rectangle 3" width="849" height="849" transform="translate(4423 1240)" fill="#ffbe5d"/>
    <path id="Path_37" data-name="Path 37" d="M-229.345-112.7-276.357,3.22-323.368-112.7h14.812l32.522,82.593,32.683-82.593Zm33.327,36.386q15.778,0,26,10.948t10.223,28.658q0,2.576-.161,4.347h-60.053q.644,8.694,7.969,15.214a25.6,25.6,0,0,0,17.63,6.521,27.275,27.275,0,0,0,12.075-2.737q5.635-2.737,8.05-5.474l2.254-2.737,8.533,8.855q-.483.644-1.368,1.61a49.1,49.1,0,0,1-3.864,3.462,45.762,45.762,0,0,1-6.279,4.428A40.571,40.571,0,0,1-183.62.322a37,37,0,0,1-10.787,1.61q-16.744,0-27.773-11.27t-11.028-27.853q0-16.583,10.384-27.853T-196.018-76.314Zm-23.667,32.683h46.69q-.483-7.245-6.6-13.685t-16.422-6.44q-10.787,0-16.744,6.36A24.658,24.658,0,0,0-219.685-43.631Zm108.675-32.683a30.089,30.089,0,0,1,5.394.483,31.571,31.571,0,0,1,4.105.966l1.288.483-4.991,12.236q-2.9-1.61-8.533-1.61a15.531,15.531,0,0,0-9.418,3.14,21.609,21.609,0,0,0-6.037,6.2l-1.61,3.22V0h-13.524V-74.382h12.558v11.431a14.317,14.317,0,0,0,.8-1.449,19.851,19.851,0,0,1,2.415-3.22,32.216,32.216,0,0,1,4.105-4.025,22.281,22.281,0,0,1,5.8-3.22A20.4,20.4,0,0,1-111.009-76.314ZM-95.554,33.649l5.8-11.109Q-85.089,26.4-80.9,26.4a8.6,8.6,0,0,0,6.682-2.737,29.782,29.782,0,0,0,4.91-8.694l5.8-14.651-34.776-74.7H-83l26.082,58.765L-34.7-74.382h14.651Q-57.4,19.642-59.168,23.989q-3.059,7.567-8.613,11.27a21.21,21.21,0,0,1-11.995,3.7,25.531,25.531,0,0,1-7.969-1.288A25.057,25.057,0,0,1-93.622,35.1ZM38.881,0V-112.7H68.505q17.227,0,26.726,8.211t9.5,22.54a27.1,27.1,0,0,1-1.69,9.74,20.21,20.21,0,0,1-4.105,6.923,35.927,35.927,0,0,1-4.267,3.864,8.492,8.492,0,0,1-2.656,1.529,14.969,14.969,0,0,1,2.656.805,25.458,25.458,0,0,1,4.669,2.656,26.985,26.985,0,0,1,5.394,4.83A25.511,25.511,0,0,1,109-43.631,33.6,33.6,0,0,1,110.848-32.2q0,14.651-9.982,23.425T74.14,0ZM74.14-12.88q11.431,0,17.307-5.393A18.041,18.041,0,0,0,97.324-32.2a18.042,18.042,0,0,0-5.877-13.927Q85.571-51.52,74.14-51.52H52.405v38.64Zm-21.735-51.2H70.759q9.5,0,14.973-4.83t5.474-13.041q0-8.211-5.474-13.041T70.759-99.82H52.405ZM129.524,0V-121.716h13.524V0Zm65.044,1.932a27.941,27.941,0,0,1-19.883-7.648q-8.131-7.647-8.131-20.85V-74.382h13.524v45.563q0,9.016,4.991,13.6t12.88,4.589a18.028,18.028,0,0,0,10.223-3.059,19.92,19.92,0,0,0,6.359-6.118l1.932-3.059v-51.52h13.524V0H217.43V-11.431q-.322.483-.886,1.449a24.659,24.659,0,0,1-2.576,3.22,28.578,28.578,0,0,1-4.428,4.025A25.635,25.635,0,0,1,203.1.483,25,25,0,0,1,194.568,1.932Zm88.067-78.246q15.778,0,26,10.948T318.86-36.708q0,2.576-.161,4.347H258.646q.644,8.694,7.969,15.214a25.6,25.6,0,0,0,17.63,6.521,27.275,27.275,0,0,0,12.075-2.737q5.635-2.737,8.05-5.474l2.254-2.737,8.533,8.855q-.483.644-1.368,1.61a49.093,49.093,0,0,1-3.864,3.462,45.764,45.764,0,0,1-6.279,4.428A40.571,40.571,0,0,1,295.032.322a37,37,0,0,1-10.787,1.61q-16.744,0-27.772-11.27T245.444-37.191q0-16.583,10.384-27.853T282.635-76.314ZM258.968-43.631h46.69q-.483-7.245-6.6-13.685t-16.422-6.44q-10.787,0-16.744,6.36A24.658,24.658,0,0,0,258.968-43.631Z" transform="translate(872 1726)" fill="#fff"/>
    <path id="Path_36" data-name="Path 36" d="M-257.117,0V-112.7h13.524V0Zm94.185-21.252,8.694,8.855q-.483.644-1.288,1.61a32.778,32.778,0,0,1-3.784,3.381,53.723,53.723,0,0,1-6.2,4.347A36.569,36.569,0,0,1-173.96.4a37.967,37.967,0,0,1-10.706,1.53q-16.422,0-27.37-11.27t-10.948-27.853q0-16.422,11.028-27.772a36.53,36.53,0,0,1,27.29-11.351,37.545,37.545,0,0,1,15.778,3.381q7.406,3.381,10.626,6.6l3.22,3.381-9.177,8.211a31.716,31.716,0,0,0-2.415-2.5q-1.61-1.53-6.923-4.025a25.83,25.83,0,0,0-11.109-2.5q-10.948,0-17.871,7.648t-6.923,18.917q0,11.27,6.923,18.918t17.871,7.648a27.207,27.207,0,0,0,7.809-1.127,24.964,24.964,0,0,0,6.2-2.656,41.929,41.929,0,0,0,4.266-3.059,15.268,15.268,0,0,0,2.656-2.656Zm15.939,54.9,5.8-11.109q4.669,3.864,8.855,3.864a8.6,8.6,0,0,0,6.682-2.737,29.782,29.782,0,0,0,4.91-8.694l5.8-14.651-34.776-74.7h15.295l26.082,58.765,22.218-58.765h14.651q-37.352,94.024-39.123,98.371-3.059,7.567-8.613,11.27a21.21,21.21,0,0,1-11.995,3.7,25.531,25.531,0,0,1-7.969-1.288,25.056,25.056,0,0,1-5.876-2.576ZM-12.558,0V-112.7H17.066q17.227,0,26.726,8.211t9.5,22.54a27.1,27.1,0,0,1-1.69,9.74A20.21,20.21,0,0,1,47.5-65.286a35.927,35.927,0,0,1-4.267,3.864,8.492,8.492,0,0,1-2.656,1.529,14.969,14.969,0,0,1,2.656.805A25.458,25.458,0,0,1,47.9-56.431a26.985,26.985,0,0,1,5.394,4.83,25.511,25.511,0,0,1,4.267,7.969A33.6,33.6,0,0,1,59.409-32.2q0,14.651-9.982,23.425T22.7,0ZM22.7-12.88q11.431,0,17.307-5.393A18.041,18.041,0,0,0,45.885-32.2a18.041,18.041,0,0,0-5.877-13.927Q34.132-51.52,22.7-51.52H.966v38.64ZM.966-64.078H19.32q9.5,0,14.973-4.83t5.474-13.041q0-8.211-5.474-13.041T19.32-99.82H.966ZM78.085,0V-121.716H91.609V0Zm65.044,1.932a27.941,27.941,0,0,1-19.883-7.648q-8.131-7.647-8.131-20.85V-74.382h13.524v45.563q0,9.016,4.991,13.6t12.88,4.589a18.028,18.028,0,0,0,10.223-3.059,19.92,19.92,0,0,0,6.359-6.118l1.932-3.059v-51.52h13.524V0H165.991V-11.431q-.322.483-.886,1.449a24.659,24.659,0,0,1-2.576,3.22A28.578,28.578,0,0,1,158.1-2.737a25.635,25.635,0,0,1-6.44,3.22A25,25,0,0,1,143.129,1.932ZM231.2-76.314q15.778,0,26,10.948t10.224,28.658q0,2.576-.161,4.347H207.207q.644,8.694,7.969,15.214a25.6,25.6,0,0,0,17.63,6.521,27.275,27.275,0,0,0,12.075-2.737q5.635-2.737,8.05-5.474l2.254-2.737,8.533,8.855q-.483.644-1.369,1.61a49.1,49.1,0,0,1-3.864,3.462,45.763,45.763,0,0,1-6.279,4.428A40.571,40.571,0,0,1,243.593.322a37,37,0,0,1-10.787,1.61q-16.744,0-27.773-11.27T194.005-37.191q0-16.583,10.384-27.853T231.2-76.314ZM207.529-43.631h46.69q-.483-7.245-6.6-13.685T231.2-63.756q-10.787,0-16.744,6.36A24.658,24.658,0,0,0,207.529-43.631Z" transform="translate(2859 1726)" fill="#222"/>
    <path id="Path_43" data-name="Path 43" d="M-235.945-97.808q15.778-16.824,39.928-16.825t39.928,16.825q15.778,16.824,15.778,41.458t-15.778,41.458Q-171.867,1.932-196.017,1.932t-39.928-16.824q-15.778-16.825-15.778-41.458T-235.945-97.808Zm10.3,73.416q11.592,13.444,29.624,13.443t29.624-13.443Q-154.8-37.835-154.8-56.35t-11.592-31.958q-11.592-13.444-29.624-13.444t-29.624,13.444q-11.592,13.444-11.592,31.958T-225.641-24.392ZM-90.562-76.314a30.089,30.089,0,0,1,5.394.483,31.571,31.571,0,0,1,4.105.966l1.288.483-4.991,12.236q-2.9-1.61-8.533-1.61a15.531,15.531,0,0,0-9.418,3.14,21.609,21.609,0,0,0-6.037,6.2l-1.61,3.22V0h-13.524V-74.382h12.558v11.431a14.319,14.319,0,0,0,.805-1.449,19.851,19.851,0,0,1,2.415-3.22,32.216,32.216,0,0,1,4.105-4.025,22.281,22.281,0,0,1,5.8-3.22A20.4,20.4,0,0,1-90.562-76.314Zm48.944,0q15.456,0,23.908,8.05a25.739,25.739,0,0,1,8.453,19.32V0h-12.4V-10.787q-.322.483-.966,1.368A25.734,25.734,0,0,1-25.679-6.36,38.373,38.373,0,0,1-30.751-2.5,29.685,29.685,0,0,1-37.835.564a30.63,30.63,0,0,1-9.1,1.368,29.325,29.325,0,0,1-19.24-7q-8.453-7-8.452-18.435A22.19,22.19,0,0,1-66.251-41.3q8.372-7,21.091-7a43.776,43.776,0,0,1,11.673,1.529,38.579,38.579,0,0,1,8.131,2.979l2.576,1.61v-4.025a19.508,19.508,0,0,0-2.013-9.257,12.134,12.134,0,0,0-5.232-5.394,27.185,27.185,0,0,0-6.037-2.254,24.872,24.872,0,0,0-5.555-.644,37.9,37.9,0,0,0-10.546,1.61,47.716,47.716,0,0,0-8.613,3.22l-3.059,1.449-5.635-11.27q1.288-.8,3.7-2.093a59.3,59.3,0,0,1,9.66-3.381A51.989,51.989,0,0,1-41.618-76.314ZM-44.033-9.982A23.4,23.4,0,0,0-32.924-12.8,27.619,27.619,0,0,0-25.2-18.354l2.415-2.9V-31.717q-7.406-5.313-19.481-5.313-8.533,0-13.685,3.783a11.59,11.59,0,0,0-5.152,9.74q0,6.762,4.991,10.143A21.02,21.02,0,0,0-44.033-9.982Zm90.8-66.332a27.941,27.941,0,0,1,19.884,7.647q8.131,7.648,8.131,20.849V0H61.261V-45.563q0-9.016-4.991-13.6T43.39-63.756a17.02,17.02,0,0,0-6.521,1.288,18.307,18.307,0,0,0-5.233,3.139,40.15,40.15,0,0,0-3.7,3.7,26.3,26.3,0,0,0-2.415,3.14L24.875-51.2V0H11.351V-74.382H23.909v10.465q.322-.483.885-1.369a23.961,23.961,0,0,1,2.576-2.979,26.573,26.573,0,0,1,4.428-3.7,27.98,27.98,0,0,1,6.44-2.979A26.328,26.328,0,0,1,46.771-76.314ZM150.294.966v-10.3a28.311,28.311,0,0,1-4.266,4.589,29.745,29.745,0,0,1-7.969,4.428A30.563,30.563,0,0,1,126.3,1.932a33.489,33.489,0,0,1-25.6-11.351Q90.241-20.769,90.241-37.191t10.465-27.772a33.489,33.489,0,0,1,25.6-11.351,30.6,30.6,0,0,1,14.168,3.22q6.279,3.22,8.694,6.44l2.254,3.059V-74.382h12.4V.322q0,18.515-11.029,28.578T124.695,38.962a42.472,42.472,0,0,1-17.146-3.542q-8.131-3.542-11.834-7.084l-3.542-3.542,8.211-10.143a12.321,12.321,0,0,0,1.047,1.288,36.331,36.331,0,0,0,3.14,2.817,38.506,38.506,0,0,0,4.991,3.542,32.026,32.026,0,0,0,6.682,2.818,28.073,28.073,0,0,0,8.452,1.288q12.075,0,18.837-6.521T150.294.966Zm0-24.15V-51.2q-.322-.483-.885-1.369a27.082,27.082,0,0,0-2.576-3.059,26.167,26.167,0,0,0-4.347-3.784,26.749,26.749,0,0,0-6.2-2.979,23.469,23.469,0,0,0-7.889-1.368q-11.109,0-17.871,7.648t-6.762,18.917q0,11.27,6.762,18.918T128.4-10.626a24.559,24.559,0,0,0,7.969-1.288,21.57,21.57,0,0,0,6.2-3.139,43.188,43.188,0,0,0,4.266-3.7,19.15,19.15,0,0,0,2.656-3.14Zm66.171-53.13q15.778,0,26,10.948t10.223,28.658q0,2.576-.161,4.347H192.475q.644,8.694,7.969,15.214a25.6,25.6,0,0,0,17.63,6.521,27.275,27.275,0,0,0,12.075-2.737q5.635-2.737,8.05-5.474l2.254-2.737,8.533,8.855q-.483.644-1.368,1.61a49.1,49.1,0,0,1-3.864,3.462,45.762,45.762,0,0,1-6.279,4.428A40.571,40.571,0,0,1,228.861.322a37,37,0,0,1-10.787,1.61q-16.744,0-27.773-11.27T179.273-37.191q0-16.583,10.384-27.853T216.464-76.314ZM192.8-43.631h46.69q-.483-7.245-6.6-13.685t-16.422-6.44q-10.787,0-16.744,6.36A24.658,24.658,0,0,0,192.8-43.631Z" transform="translate(4847.5 1726)" fill="#222"/>
  </g>
</svg>
