<svg xmlns="http://www.w3.org/2000/svg" width="13504" height="3698" viewBox="0 0 13504 3698"><g id="Group_3" data-name="Group 3" transform="translate(-298 -143)"><circle id="Ellipse_2" cx="64" cy="64" r="64" fill="#707070" data-name="Ellipse 2" opacity=".18" transform="translate(298 143)"/><circle id="Ellipse_162" cx="64" cy="64" r="64" fill="#707070" data-name="Ellipse 162" opacity=".18" transform="translate(8658 143)"/><circle id="Ellipse_154" cx="64" cy="64" r="64" fill="#707070" data-name="Ellipse 154" opacity=".18" transform="translate(4478 143)"/><circle id="Ellipse_186" cx="64" cy="64" r="64" fill="#707070" data-name="Ellipse 186" opacity=".18" transform="translate(12838 143)"/><circle id="Ellipse_77" cx="64" cy="64" r="64" fill="#707070" data-name="Ellipse 77" opacity=".18" transform="translate(2388 143)"/><circle id="Ellipse_170" cx="64" cy="64" r="64" fill="#707070" data-name="Ellipse 170" opacity=".18" transform="translate(10748 143)"/><circle id="Ellipse_138" cx="64" cy="64" r="64" fill="#707070" data-name="Ellipse 138" opacity=".18" transform="translate(6568 143)"/><circle id="Ellipse_10" cx="64" cy="64" r="64" fill="#707070" data-name="Ellipse 10" opacity=".18" transform="translate(716 143)"/><circle id="Ellipse_163" cx="64" cy="64" r="64" fill="#707070" data-name="Ellipse 163" opacity=".18" transform="translate(9076 143)"/><circle id="Ellipse_139" cx="64" cy="64" r="64" fill="#707070" data-name="Ellipse 139" opacity=".18" transform="translate(4896 143)"/><circle id="Ellipse_187" cx="64" cy="64" r="64" fill="#707070" data-name="Ellipse 187" opacity=".18" transform="translate(13256 143)"/><circle id="Ellipse_78" cx="64" cy="64" r="64" fill="#707070" data-name="Ellipse 78" opacity=".18" transform="translate(2806 143)"/><circle id="Ellipse_188" cx="64" cy="64" r="64" fill="#707070" data-name="Ellipse 188" opacity=".18" transform="translate(11166 143)"/><circle id="Ellipse_140" cx="64" cy="64" r="64" fill="#707070" data-name="Ellipse 140" opacity=".18" transform="translate(6986 143)"/><circle id="Ellipse_18" cx="64" cy="64" r="64" fill="#707070" data-name="Ellipse 18" opacity=".18" transform="translate(1134 143)"/><circle id="Ellipse_164" cx="64" cy="64" r="64" fill="#707070" data-name="Ellipse 164" opacity=".18" transform="translate(9494 143)"/><circle id="Ellipse_141" cx="64" cy="64" r="64" fill="#707070" data-name="Ellipse 141" opacity=".18" transform="translate(5314 143)"/><circle id="Ellipse_189" cx="64" cy="64" r="64" fill="#707070" data-name="Ellipse 189" opacity=".18" transform="translate(13674 143)"/><circle id="Ellipse_79" cx="64" cy="64" r="64" fill="#707070" data-name="Ellipse 79" opacity=".18" transform="translate(3224 143)"/><circle id="Ellipse_190" cx="64" cy="64" r="64" fill="#707070" data-name="Ellipse 190" opacity=".18" transform="translate(11584 143)"/><circle id="Ellipse_142" cx="64" cy="64" r="64" fill="#707070" data-name="Ellipse 142" opacity=".18" transform="translate(7404 143)"/><circle id="Ellipse_26" cx="64" cy="64" r="64" fill="#707070" data-name="Ellipse 26" opacity=".18" transform="translate(1552 143)"/><circle id="Ellipse_165" cx="64" cy="64" r="64" fill="#707070" data-name="Ellipse 165" opacity=".18" transform="translate(9912 143)"/><circle id="Ellipse_143" cx="64" cy="64" r="64" fill="#707070" data-name="Ellipse 143" opacity=".18" transform="translate(5732 143)"/><circle id="Ellipse_80" cx="64" cy="64" r="64" fill="#707070" data-name="Ellipse 80" opacity=".18" transform="translate(3642 143)"/><circle id="Ellipse_192" cx="64" cy="64" r="64" fill="#707070" data-name="Ellipse 192" opacity=".18" transform="translate(12002 143)"/><circle id="Ellipse_144" cx="64" cy="64" r="64" fill="#707070" data-name="Ellipse 144" opacity=".18" transform="translate(7822 143)"/><circle id="Ellipse_34" cx="64" cy="64" r="64" fill="#707070" data-name="Ellipse 34" opacity=".18" transform="translate(1970 143)"/><circle id="Ellipse_171" cx="64" cy="64" r="64" fill="#707070" data-name="Ellipse 171" opacity=".18" transform="translate(10330 143)"/><circle id="Ellipse_145" cx="64" cy="64" r="64" fill="#707070" data-name="Ellipse 145" opacity=".18" transform="translate(6150 143)"/><circle id="Ellipse_81" cx="64" cy="64" r="64" fill="#707070" data-name="Ellipse 81" opacity=".18" transform="translate(4060 143)"/><circle id="Ellipse_193" cx="64" cy="64" r="64" fill="#707070" data-name="Ellipse 193" opacity=".18" transform="translate(12420 143)"/><circle id="Ellipse_146" cx="64" cy="64" r="64" fill="#707070" data-name="Ellipse 146" opacity=".18" transform="translate(8240 143)"/><circle id="Ellipse_9" cx="64" cy="64" r="64" fill="#707070" data-name="Ellipse 9" opacity=".18" transform="translate(298 2183)"/><circle id="Ellipse_194" cx="64" cy="64" r="64" fill="#707070" data-name="Ellipse 194" opacity=".18" transform="translate(8658 2183)"/><circle id="Ellipse_155" cx="64" cy="64" r="64" fill="#707070" data-name="Ellipse 155" opacity=".18" transform="translate(4478 2183)"/><circle id="Ellipse_195" cx="64" cy="64" r="64" fill="#707070" data-name="Ellipse 195" opacity=".18" transform="translate(12838 2183)"/><circle id="Ellipse_44" cx="64" cy="64" r="64" fill="#707070" data-name="Ellipse 44" opacity=".18" transform="translate(2388 2183)"/><circle id="Ellipse_196" cx="64" cy="64" r="64" fill="#707070" data-name="Ellipse 196" opacity=".18" transform="translate(10748 2183)"/><circle id="Ellipse_86" cx="64" cy="64" r="64" fill="#707070" data-name="Ellipse 86" opacity=".18" transform="translate(6568 2183)"/><circle id="Ellipse_14" cx="64" cy="64" r="64" fill="#707070" data-name="Ellipse 14" opacity=".18" transform="translate(716 2183)"/><circle id="Ellipse_197" cx="64" cy="64" r="64" fill="#707070" data-name="Ellipse 197" opacity=".18" transform="translate(9076 2183)"/><circle id="Ellipse_147" cx="64" cy="64" r="64" fill="#707070" data-name="Ellipse 147" opacity=".18" transform="translate(4896 2183)"/><circle id="Ellipse_198" cx="64" cy="64" r="64" fill="#707070" data-name="Ellipse 198" opacity=".18" transform="translate(13256 2183)"/><circle id="Ellipse_45" cx="64" cy="64" r="64" fill="#707070" data-name="Ellipse 45" opacity=".18" transform="translate(2806 2183)"/><circle id="Ellipse_199" cx="64" cy="64" r="64" fill="#707070" data-name="Ellipse 199" opacity=".18" transform="translate(11166 2183)"/><circle id="Ellipse_87" cx="64" cy="64" r="64" fill="#707070" data-name="Ellipse 87" opacity=".18" transform="translate(6986 2183)"/><circle id="Ellipse_22" cx="64" cy="64" r="64" fill="#707070" data-name="Ellipse 22" opacity=".18" transform="translate(1134 2183)"/><circle id="Ellipse_200" cx="64" cy="64" r="64" fill="#707070" data-name="Ellipse 200" opacity=".18" transform="translate(9494 2183)"/><circle id="Ellipse_88" cx="64" cy="64" r="64" fill="#707070" data-name="Ellipse 88" opacity=".18" transform="translate(5314 2183)"/><circle id="Ellipse_201" cx="64" cy="64" r="64" fill="#707070" data-name="Ellipse 201" opacity=".18" transform="translate(13674 2183)"/><circle id="Ellipse_46" cx="64" cy="64" r="64" fill="#707070" data-name="Ellipse 46" opacity=".18" transform="translate(3224 2183)"/><circle id="Ellipse_202" cx="64" cy="64" r="64" fill="#707070" data-name="Ellipse 202" opacity=".18" transform="translate(11584 2183)"/><circle id="Ellipse_89" cx="64" cy="64" r="64" fill="#707070" data-name="Ellipse 89" opacity=".18" transform="translate(7404 2183)"/><circle id="Ellipse_30" cx="64" cy="64" r="64" fill="#707070" data-name="Ellipse 30" opacity=".18" transform="translate(1552 2183)"/><circle id="Ellipse_203" cx="64" cy="64" r="64" fill="#707070" data-name="Ellipse 203" opacity=".18" transform="translate(9912 2183)"/><circle id="Ellipse_90" cx="64" cy="64" r="64" fill="#707070" data-name="Ellipse 90" opacity=".18" transform="translate(5732 2183)"/><circle id="Ellipse_47" cx="64" cy="64" r="64" fill="#707070" data-name="Ellipse 47" opacity=".18" transform="translate(3642 2183)"/><circle id="Ellipse_205" cx="64" cy="64" r="64" fill="#707070" data-name="Ellipse 205" opacity=".18" transform="translate(12002 2183)"/><circle id="Ellipse_91" cx="64" cy="64" r="64" fill="#707070" data-name="Ellipse 91" opacity=".18" transform="translate(7822 2183)"/><circle id="Ellipse_38" cx="64" cy="64" r="64" fill="#707070" data-name="Ellipse 38" opacity=".18" transform="translate(1970 2183)"/><circle id="Ellipse_206" cx="64" cy="64" r="64" fill="#707070" data-name="Ellipse 206" opacity=".18" transform="translate(10330 2183)"/><circle id="Ellipse_92" cx="64" cy="64" r="64" fill="#707070" data-name="Ellipse 92" opacity=".18" transform="translate(6150 2183)"/><circle id="Ellipse_48" cx="64" cy="64" r="64" fill="#707070" data-name="Ellipse 48" opacity=".18" transform="translate(4060 2183)"/><circle id="Ellipse_207" cx="64" cy="64" r="64" fill="#707070" data-name="Ellipse 207" opacity=".18" transform="translate(12420 2183)"/><circle id="Ellipse_93" cx="64" cy="64" r="64" fill="#707070" data-name="Ellipse 93" opacity=".18" transform="translate(8240 2183)"/><circle id="Ellipse_3" cx="64" cy="64" r="64" fill="#707070" data-name="Ellipse 3" opacity=".18" transform="translate(298 653)"/><circle id="Ellipse_166" cx="64" cy="64" r="64" fill="#707070" data-name="Ellipse 166" opacity=".18" transform="translate(8658 653)"/><circle id="Ellipse_156" cx="64" cy="64" r="64" fill="#707070" data-name="Ellipse 156" opacity=".18" transform="translate(4478 653)"/><circle id="Ellipse_208" cx="64" cy="64" r="64" fill="#707070" data-name="Ellipse 208" opacity=".18" transform="translate(12838 653)"/><circle id="Ellipse_72" cx="64" cy="64" r="64" fill="#707070" data-name="Ellipse 72" opacity=".18" transform="translate(2388 653)"/><circle id="Ellipse_172" cx="64" cy="64" r="64" fill="#707070" data-name="Ellipse 172" opacity=".18" transform="translate(10748 653)"/><circle id="Ellipse_94" cx="64" cy="64" r="64" fill="#707070" data-name="Ellipse 94" opacity=".18" transform="translate(6568 653)"/><circle id="Ellipse_11" cx="64" cy="64" r="64" fill="#707070" data-name="Ellipse 11" opacity=".18" transform="translate(716 653)"/><circle id="Ellipse_167" cx="64" cy="64" r="64" fill="#707070" data-name="Ellipse 167" opacity=".18" transform="translate(9076 653)"/><circle id="Ellipse_148" cx="64" cy="64" r="64" fill="#707070" data-name="Ellipse 148" opacity=".18" transform="translate(4896 653)"/><circle id="Ellipse_209" cx="64" cy="64" r="64" fill="#707070" data-name="Ellipse 209" opacity=".18" transform="translate(13256 653)"/><circle id="Ellipse_73" cx="64" cy="64" r="64" fill="#707070" data-name="Ellipse 73" opacity=".18" transform="translate(2806 653)"/><circle id="Ellipse_210" cx="64" cy="64" r="64" fill="#707070" data-name="Ellipse 210" opacity=".18" transform="translate(11166 653)"/><circle id="Ellipse_95" cx="64" cy="64" r="64" fill="#707070" data-name="Ellipse 95" opacity=".18" transform="translate(6986 653)"/><circle id="Ellipse_19" cx="64" cy="64" r="64" fill="#707070" data-name="Ellipse 19" opacity=".18" transform="translate(1134 653)"/><circle id="Ellipse_168" cx="64" cy="64" r="64" fill="#707070" data-name="Ellipse 168" opacity=".18" transform="translate(9494 653)"/><circle id="Ellipse_96" cx="64" cy="64" r="64" fill="#707070" data-name="Ellipse 96" opacity=".18" transform="translate(5314 653)"/><circle id="Ellipse_211" cx="64" cy="64" r="64" fill="#707070" data-name="Ellipse 211" opacity=".18" transform="translate(13674 653)"/><circle id="Ellipse_74" cx="64" cy="64" r="64" fill="#707070" data-name="Ellipse 74" opacity=".18" transform="translate(3224 653)"/><circle id="Ellipse_212" cx="64" cy="64" r="64" fill="#707070" data-name="Ellipse 212" opacity=".18" transform="translate(11584 653)"/><circle id="Ellipse_97" cx="64" cy="64" r="64" fill="#707070" data-name="Ellipse 97" opacity=".18" transform="translate(7404 653)"/><circle id="Ellipse_27" cx="64" cy="64" r="64" fill="#707070" data-name="Ellipse 27" opacity=".18" transform="translate(1552 653)"/><circle id="Ellipse_169" cx="64" cy="64" r="64" fill="#707070" data-name="Ellipse 169" opacity=".18" transform="translate(9912 653)"/><circle id="Ellipse_98" cx="64" cy="64" r="64" fill="#707070" data-name="Ellipse 98" opacity=".18" transform="translate(5732 653)"/><circle id="Ellipse_75" cx="64" cy="64" r="64" fill="#707070" data-name="Ellipse 75" opacity=".18" transform="translate(3642 653)"/><circle id="Ellipse_214" cx="64" cy="64" r="64" fill="#707070" data-name="Ellipse 214" opacity=".18" transform="translate(12002 653)"/><circle id="Ellipse_99" cx="64" cy="64" r="64" fill="#707070" data-name="Ellipse 99" opacity=".18" transform="translate(7822 653)"/><circle id="Ellipse_35" cx="64" cy="64" r="64" fill="#707070" data-name="Ellipse 35" opacity=".18" transform="translate(1970 653)"/><circle id="Ellipse_173" cx="64" cy="64" r="64" fill="#707070" data-name="Ellipse 173" opacity=".18" transform="translate(10330 653)"/><circle id="Ellipse_100" cx="64" cy="64" r="64" fill="#707070" data-name="Ellipse 100" opacity=".18" transform="translate(6150 653)"/><circle id="Ellipse_76" cx="64" cy="64" r="64" fill="#707070" data-name="Ellipse 76" opacity=".18" transform="translate(4060 653)"/><circle id="Ellipse_215" cx="64" cy="64" r="64" fill="#707070" data-name="Ellipse 215" opacity=".18" transform="translate(12420 653)"/><circle id="Ellipse_101" cx="64" cy="64" r="64" fill="#707070" data-name="Ellipse 101" opacity=".18" transform="translate(8240 653)"/><circle id="Ellipse_7" cx="64" cy="64" r="64" fill="#707070" data-name="Ellipse 7" opacity=".18" transform="translate(298 2693)"/><circle id="Ellipse_216" cx="64" cy="64" r="64" fill="#707070" data-name="Ellipse 216" opacity=".18" transform="translate(8658 2693)"/><circle id="Ellipse_157" cx="64" cy="64" r="64" fill="#707070" data-name="Ellipse 157" opacity=".18" transform="translate(4478 2693)"/><circle id="Ellipse_217" cx="64" cy="64" r="64" fill="#707070" data-name="Ellipse 217" opacity=".18" transform="translate(12838 2693)"/><circle id="Ellipse_49" cx="64" cy="64" r="64" fill="#707070" data-name="Ellipse 49" opacity=".18" transform="translate(2388 2693)"/><circle id="Ellipse_218" cx="64" cy="64" r="64" fill="#707070" data-name="Ellipse 218" opacity=".18" transform="translate(10748 2693)"/><circle id="Ellipse_102" cx="64" cy="64" r="64" fill="#707070" data-name="Ellipse 102" opacity=".18" transform="translate(6568 2693)"/><circle id="Ellipse_15" cx="64" cy="64" r="64" fill="#707070" data-name="Ellipse 15" opacity=".18" transform="translate(716 2693)"/><circle id="Ellipse_219" cx="64" cy="64" r="64" fill="#707070" data-name="Ellipse 219" opacity=".18" transform="translate(9076 2693)"/><circle id="Ellipse_149" cx="64" cy="64" r="64" fill="#707070" data-name="Ellipse 149" opacity=".18" transform="translate(4896 2693)"/><circle id="Ellipse_220" cx="64" cy="64" r="64" fill="#707070" data-name="Ellipse 220" opacity=".18" transform="translate(13256 2693)"/><circle id="Ellipse_50" cx="64" cy="64" r="64" fill="#707070" data-name="Ellipse 50" opacity=".18" transform="translate(2806 2693)"/><circle id="Ellipse_221" cx="64" cy="64" r="64" fill="#707070" data-name="Ellipse 221" opacity=".18" transform="translate(11166 2693)"/><circle id="Ellipse_103" cx="64" cy="64" r="64" fill="#707070" data-name="Ellipse 103" opacity=".18" transform="translate(6986 2693)"/><circle id="Ellipse_23" cx="64" cy="64" r="64" fill="#707070" data-name="Ellipse 23" opacity=".18" transform="translate(1134 2693)"/><circle id="Ellipse_222" cx="64" cy="64" r="64" fill="#707070" data-name="Ellipse 222" opacity=".18" transform="translate(9494 2693)"/><circle id="Ellipse_104" cx="64" cy="64" r="64" fill="#707070" data-name="Ellipse 104" opacity=".18" transform="translate(5314 2693)"/><circle id="Ellipse_223" cx="64" cy="64" r="64" fill="#707070" data-name="Ellipse 223" opacity=".18" transform="translate(13674 2693)"/><circle id="Ellipse_51" cx="64" cy="64" r="64" fill="#707070" data-name="Ellipse 51" opacity=".18" transform="translate(3224 2693)"/><circle id="Ellipse_224" cx="64" cy="64" r="64" fill="#707070" data-name="Ellipse 224" opacity=".18" transform="translate(11584 2693)"/><circle id="Ellipse_105" cx="64" cy="64" r="64" fill="#707070" data-name="Ellipse 105" opacity=".18" transform="translate(7404 2693)"/><circle id="Ellipse_31" cx="64" cy="64" r="64" fill="#707070" data-name="Ellipse 31" opacity=".18" transform="translate(1552 2693)"/><circle id="Ellipse_225" cx="64" cy="64" r="64" fill="#707070" data-name="Ellipse 225" opacity=".18" transform="translate(9912 2693)"/><circle id="Ellipse_106" cx="64" cy="64" r="64" fill="#707070" data-name="Ellipse 106" opacity=".18" transform="translate(5732 2693)"/><circle id="Ellipse_52" cx="64" cy="64" r="64" fill="#707070" data-name="Ellipse 52" opacity=".18" transform="translate(3642 2693)"/><circle id="Ellipse_227" cx="64" cy="64" r="64" fill="#707070" data-name="Ellipse 227" opacity=".18" transform="translate(12002 2693)"/><circle id="Ellipse_107" cx="64" cy="64" r="64" fill="#707070" data-name="Ellipse 107" opacity=".18" transform="translate(7822 2693)"/><circle id="Ellipse_39" cx="64" cy="64" r="64" fill="#707070" data-name="Ellipse 39" opacity=".18" transform="translate(1970 2693)"/><circle id="Ellipse_228" cx="64" cy="64" r="64" fill="#707070" data-name="Ellipse 228" opacity=".18" transform="translate(10330 2693)"/><circle id="Ellipse_108" cx="64" cy="64" r="64" fill="#707070" data-name="Ellipse 108" opacity=".18" transform="translate(6150 2693)"/><circle id="Ellipse_53" cx="64" cy="64" r="64" fill="#707070" data-name="Ellipse 53" opacity=".18" transform="translate(4060 2693)"/><circle id="Ellipse_229" cx="64" cy="64" r="64" fill="#707070" data-name="Ellipse 229" opacity=".18" transform="translate(12420 2693)"/><circle id="Ellipse_109" cx="64" cy="64" r="64" fill="#707070" data-name="Ellipse 109" opacity=".18" transform="translate(8240 2693)"/><circle id="Ellipse_4" cx="64" cy="64" r="64" fill="#707070" data-name="Ellipse 4" opacity=".18" transform="translate(298 1163)"/><circle id="Ellipse_174" cx="64" cy="64" r="64" fill="#707070" data-name="Ellipse 174" opacity=".18" transform="translate(8658 1163)"/><circle id="Ellipse_158" cx="64" cy="64" r="64" fill="#707070" data-name="Ellipse 158" opacity=".18" transform="translate(4478 1163)"/><circle id="Ellipse_230" cx="64" cy="64" r="64" fill="#707070" data-name="Ellipse 230" opacity=".18" transform="translate(12838 1163)"/><circle id="Ellipse_67" cx="64" cy="64" r="64" fill="#707070" data-name="Ellipse 67" opacity=".18" transform="translate(2388 1163)"/><circle id="Ellipse_175" cx="64" cy="64" r="64" fill="#707070" data-name="Ellipse 175" opacity=".18" transform="translate(10748 1163)"/><circle id="Ellipse_110" cx="64" cy="64" r="64" fill="#707070" data-name="Ellipse 110" opacity=".18" transform="translate(6568 1163)"/><circle id="Ellipse_12" cx="64" cy="64" r="64" fill="#707070" data-name="Ellipse 12" opacity=".18" transform="translate(716 1163)"/><circle id="Ellipse_176" cx="64" cy="64" r="64" fill="#707070" data-name="Ellipse 176" opacity=".18" transform="translate(9076 1163)"/><circle id="Ellipse_150" cx="64" cy="64" r="64" fill="#707070" data-name="Ellipse 150" opacity=".18" transform="translate(4896 1163)"/><circle id="Ellipse_231" cx="64" cy="64" r="64" fill="#707070" data-name="Ellipse 231" opacity=".18" transform="translate(13256 1163)"/><circle id="Ellipse_68" cx="64" cy="64" r="64" fill="#707070" data-name="Ellipse 68" opacity=".18" transform="translate(2806 1163)"/><circle id="Ellipse_232" cx="64" cy="64" r="64" fill="#707070" data-name="Ellipse 232" opacity=".18" transform="translate(11166 1163)"/><circle id="Ellipse_111" cx="64" cy="64" r="64" fill="#707070" data-name="Ellipse 111" opacity=".18" transform="translate(6986 1163)"/><circle id="Ellipse_20" cx="64" cy="64" r="64" fill="#707070" data-name="Ellipse 20" opacity=".18" transform="translate(1134 1163)"/><circle id="Ellipse_177" cx="64" cy="64" r="64" fill="#707070" data-name="Ellipse 177" opacity=".18" transform="translate(9494 1163)"/><circle id="Ellipse_112" cx="64" cy="64" r="64" fill="#707070" data-name="Ellipse 112" opacity=".18" transform="translate(5314 1163)"/><circle id="Ellipse_233" cx="64" cy="64" r="64" fill="#707070" data-name="Ellipse 233" opacity=".18" transform="translate(13674 1163)"/><circle id="Ellipse_69" cx="64" cy="64" r="64" fill="#707070" data-name="Ellipse 69" opacity=".18" transform="translate(3224 1163)"/><circle id="Ellipse_234" cx="64" cy="64" r="64" fill="#707070" data-name="Ellipse 234" opacity=".18" transform="translate(11584 1163)"/><circle id="Ellipse_113" cx="64" cy="64" r="64" fill="#707070" data-name="Ellipse 113" opacity=".18" transform="translate(7404 1163)"/><circle id="Ellipse_28" cx="64" cy="64" r="64" fill="#707070" data-name="Ellipse 28" opacity=".18" transform="translate(1552 1163)"/><circle id="Ellipse_178" cx="64" cy="64" r="64" fill="#707070" data-name="Ellipse 178" opacity=".18" transform="translate(9912 1163)"/><circle id="Ellipse_114" cx="64" cy="64" r="64" fill="#707070" data-name="Ellipse 114" opacity=".18" transform="translate(5732 1163)"/><circle id="Ellipse_70" cx="64" cy="64" r="64" fill="#707070" data-name="Ellipse 70" opacity=".18" transform="translate(3642 1163)"/><circle id="Ellipse_236" cx="64" cy="64" r="64" fill="#707070" data-name="Ellipse 236" opacity=".18" transform="translate(12002 1163)"/><circle id="Ellipse_115" cx="64" cy="64" r="64" fill="#707070" data-name="Ellipse 115" opacity=".18" transform="translate(7822 1163)"/><circle id="Ellipse_36" cx="64" cy="64" r="64" fill="#707070" data-name="Ellipse 36" opacity=".18" transform="translate(1970 1163)"/><circle id="Ellipse_179" cx="64" cy="64" r="64" fill="#707070" data-name="Ellipse 179" opacity=".18" transform="translate(10330 1163)"/><circle id="Ellipse_116" cx="64" cy="64" r="64" fill="#707070" data-name="Ellipse 116" opacity=".18" transform="translate(6150 1163)"/><circle id="Ellipse_71" cx="64" cy="64" r="64" fill="#707070" data-name="Ellipse 71" opacity=".18" transform="translate(4060 1163)"/><circle id="Ellipse_237" cx="64" cy="64" r="64" fill="#707070" data-name="Ellipse 237" opacity=".18" transform="translate(12420 1163)"/><circle id="Ellipse_117" cx="64" cy="64" r="64" fill="#707070" data-name="Ellipse 117" opacity=".18" transform="translate(8240 1163)"/><circle id="Ellipse_8" cx="64" cy="64" r="64" fill="#707070" data-name="Ellipse 8" opacity=".18" transform="translate(298 3203)"/><circle id="Ellipse_238" cx="64" cy="64" r="64" fill="#707070" data-name="Ellipse 238" opacity=".18" transform="translate(8658 3203)"/><circle id="Ellipse_159" cx="64" cy="64" r="64" fill="#707070" data-name="Ellipse 159" opacity=".18" transform="translate(4478 3203)"/><circle id="Ellipse_239" cx="64" cy="64" r="64" fill="#707070" data-name="Ellipse 239" opacity=".18" transform="translate(12838 3203)"/><circle id="Ellipse_54" cx="64" cy="64" r="64" fill="#707070" data-name="Ellipse 54" opacity=".18" transform="translate(2388 3203)"/><circle id="Ellipse_240" cx="64" cy="64" r="64" fill="#707070" data-name="Ellipse 240" opacity=".18" transform="translate(10748 3203)"/><circle id="Ellipse_118" cx="64" cy="64" r="64" fill="#707070" data-name="Ellipse 118" opacity=".18" transform="translate(6568 3203)"/><circle id="Ellipse_16" cx="64" cy="64" r="64" fill="#707070" data-name="Ellipse 16" opacity=".18" transform="translate(716 3203)"/><circle id="Ellipse_241" cx="64" cy="64" r="64" fill="#707070" data-name="Ellipse 241" opacity=".18" transform="translate(9076 3203)"/><circle id="Ellipse_151" cx="64" cy="64" r="64" fill="#707070" data-name="Ellipse 151" opacity=".18" transform="translate(4896 3203)"/><circle id="Ellipse_242" cx="64" cy="64" r="64" fill="#707070" data-name="Ellipse 242" opacity=".18" transform="translate(13256 3203)"/><circle id="Ellipse_55" cx="64" cy="64" r="64" fill="#707070" data-name="Ellipse 55" opacity=".18" transform="translate(2806 3203)"/><circle id="Ellipse_243" cx="64" cy="64" r="64" fill="#707070" data-name="Ellipse 243" opacity=".18" transform="translate(11166 3203)"/><circle id="Ellipse_119" cx="64" cy="64" r="64" fill="#707070" data-name="Ellipse 119" opacity=".18" transform="translate(6986 3203)"/><circle id="Ellipse_24" cx="64" cy="64" r="64" fill="#707070" data-name="Ellipse 24" opacity=".18" transform="translate(1134 3203)"/><circle id="Ellipse_244" cx="64" cy="64" r="64" fill="#707070" data-name="Ellipse 244" opacity=".18" transform="translate(9494 3203)"/><circle id="Ellipse_120" cx="64" cy="64" r="64" fill="#707070" data-name="Ellipse 120" opacity=".18" transform="translate(5314 3203)"/><circle id="Ellipse_245" cx="64" cy="64" r="64" fill="#707070" data-name="Ellipse 245" opacity=".18" transform="translate(13674 3203)"/><circle id="Ellipse_56" cx="64" cy="64" r="64" fill="#707070" data-name="Ellipse 56" opacity=".18" transform="translate(3224 3203)"/><circle id="Ellipse_246" cx="64" cy="64" r="64" fill="#707070" data-name="Ellipse 246" opacity=".18" transform="translate(11584 3203)"/><circle id="Ellipse_121" cx="64" cy="64" r="64" fill="#707070" data-name="Ellipse 121" opacity=".18" transform="translate(7404 3203)"/><circle id="Ellipse_32" cx="64" cy="64" r="64" fill="#707070" data-name="Ellipse 32" opacity=".18" transform="translate(1552 3203)"/><circle id="Ellipse_247" cx="64" cy="64" r="64" fill="#707070" data-name="Ellipse 247" opacity=".18" transform="translate(9912 3203)"/><circle id="Ellipse_122" cx="64" cy="64" r="64" fill="#707070" data-name="Ellipse 122" opacity=".18" transform="translate(5732 3203)"/><circle id="Ellipse_57" cx="64" cy="64" r="64" fill="#707070" data-name="Ellipse 57" opacity=".18" transform="translate(3642 3203)"/><circle id="Ellipse_249" cx="64" cy="64" r="64" fill="#707070" data-name="Ellipse 249" opacity=".18" transform="translate(12002 3203)"/><circle id="Ellipse_84" cx="64" cy="64" r="64" fill="#707070" data-name="Ellipse 84" opacity=".18" transform="translate(7822 3203)"/><circle id="Ellipse_40" cx="64" cy="64" r="64" fill="#707070" data-name="Ellipse 40" opacity=".18" transform="translate(1970 3203)"/><circle id="Ellipse_250" cx="64" cy="64" r="64" fill="#707070" data-name="Ellipse 250" opacity=".18" transform="translate(10330 3203)"/><circle id="Ellipse_123" cx="64" cy="64" r="64" fill="#707070" data-name="Ellipse 123" opacity=".18" transform="translate(6150 3203)"/><circle id="Ellipse_42" cx="64" cy="64" r="64" fill="#707070" data-name="Ellipse 42" opacity=".18" transform="translate(4060 3203)"/><circle id="Ellipse_251" cx="64" cy="64" r="64" fill="#707070" data-name="Ellipse 251" opacity=".18" transform="translate(12420 3203)"/><circle id="Ellipse_85" cx="64" cy="64" r="64" fill="#707070" data-name="Ellipse 85" opacity=".18" transform="translate(8240 3203)"/><circle id="Ellipse_5" cx="64" cy="64" r="64" fill="#707070" data-name="Ellipse 5" opacity=".18" transform="translate(298 1673)"/><circle id="Ellipse_180" cx="64" cy="64" r="64" fill="#707070" data-name="Ellipse 180" opacity=".18" transform="translate(8658 1673)"/><circle id="Ellipse_160" cx="64" cy="64" r="64" fill="#707070" data-name="Ellipse 160" opacity=".18" transform="translate(4478 1673)"/><circle id="Ellipse_252" cx="64" cy="64" r="64" fill="#707070" data-name="Ellipse 252" opacity=".18" transform="translate(12838 1673)"/><circle id="Ellipse_58" cx="64" cy="64" r="64" fill="#707070" data-name="Ellipse 58" opacity=".18" transform="translate(2388 1673)"/><circle id="Ellipse_181" cx="64" cy="64" r="64" fill="#707070" data-name="Ellipse 181" opacity=".18" transform="translate(10748 1673)"/><circle id="Ellipse_124" cx="64" cy="64" r="64" fill="#707070" data-name="Ellipse 124" opacity=".18" transform="translate(6568 1673)"/><circle id="Ellipse_13" cx="64" cy="64" r="64" fill="#707070" data-name="Ellipse 13" opacity=".18" transform="translate(716 1673)"/><circle id="Ellipse_182" cx="64" cy="64" r="64" fill="#707070" data-name="Ellipse 182" opacity=".18" transform="translate(9076 1673)"/><circle id="Ellipse_152" cx="64" cy="64" r="64" fill="#707070" data-name="Ellipse 152" opacity=".18" transform="translate(4896 1673)"/><circle id="Ellipse_253" cx="64" cy="64" r="64" fill="#707070" data-name="Ellipse 253" opacity=".18" transform="translate(13256 1673)"/><circle id="Ellipse_59" cx="64" cy="64" r="64" fill="#707070" data-name="Ellipse 59" opacity=".18" transform="translate(2806 1673)"/><circle id="Ellipse_254" cx="64" cy="64" r="64" fill="#707070" data-name="Ellipse 254" opacity=".18" transform="translate(11166 1673)"/><circle id="Ellipse_125" cx="64" cy="64" r="64" fill="#707070" data-name="Ellipse 125" opacity=".18" transform="translate(6986 1673)"/><circle id="Ellipse_21" cx="64" cy="64" r="64" fill="#707070" data-name="Ellipse 21" opacity=".18" transform="translate(1134 1673)"/><circle id="Ellipse_183" cx="64" cy="64" r="64" fill="#707070" data-name="Ellipse 183" opacity=".18" transform="translate(9494 1673)"/><circle id="Ellipse_126" cx="64" cy="64" r="64" fill="#707070" data-name="Ellipse 126" opacity=".18" transform="translate(5314 1673)"/><circle id="Ellipse_255" cx="64" cy="64" r="64" fill="#707070" data-name="Ellipse 255" opacity=".18" transform="translate(13674 1673)"/><circle id="Ellipse_60" cx="64" cy="64" r="64" fill="#707070" data-name="Ellipse 60" opacity=".18" transform="translate(3224 1673)"/><circle id="Ellipse_256" cx="64" cy="64" r="64" fill="#707070" data-name="Ellipse 256" opacity=".18" transform="translate(11584 1673)"/><circle id="Ellipse_127" cx="64" cy="64" r="64" fill="#707070" data-name="Ellipse 127" opacity=".18" transform="translate(7404 1673)"/><circle id="Ellipse_29" cx="64" cy="64" r="64" fill="#707070" data-name="Ellipse 29" opacity=".18" transform="translate(1552 1673)"/><circle id="Ellipse_184" cx="64" cy="64" r="64" fill="#707070" data-name="Ellipse 184" opacity=".18" transform="translate(9912 1673)"/><circle id="Ellipse_128" cx="64" cy="64" r="64" fill="#707070" data-name="Ellipse 128" opacity=".18" transform="translate(5732 1673)"/><circle id="Ellipse_61" cx="64" cy="64" r="64" fill="#707070" data-name="Ellipse 61" opacity=".18" transform="translate(3642 1673)"/><circle id="Ellipse_258" cx="64" cy="64" r="64" fill="#707070" data-name="Ellipse 258" opacity=".18" transform="translate(12002 1673)"/><circle id="Ellipse_129" cx="64" cy="64" r="64" fill="#707070" data-name="Ellipse 129" opacity=".18" transform="translate(7822 1673)"/><circle id="Ellipse_37" cx="64" cy="64" r="64" fill="#707070" data-name="Ellipse 37" opacity=".18" transform="translate(1970 1673)"/><circle id="Ellipse_185" cx="64" cy="64" r="64" fill="#707070" data-name="Ellipse 185" opacity=".18" transform="translate(10330 1673)"/><circle id="Ellipse_130" cx="64" cy="64" r="64" fill="#707070" data-name="Ellipse 130" opacity=".18" transform="translate(6150 1673)"/><circle id="Ellipse_62" cx="64" cy="64" r="64" fill="#707070" data-name="Ellipse 62" opacity=".18" transform="translate(4060 1673)"/><circle id="Ellipse_259" cx="64" cy="64" r="64" fill="#707070" data-name="Ellipse 259" opacity=".18" transform="translate(12420 1673)"/><circle id="Ellipse_131" cx="64" cy="64" r="64" fill="#707070" data-name="Ellipse 131" opacity=".18" transform="translate(8240 1673)"/><circle id="Ellipse_6" cx="64" cy="64" r="64" fill="#707070" data-name="Ellipse 6" opacity=".18" transform="translate(298 3713)"/><circle id="Ellipse_267" cx="64" cy="64" r="64" fill="#707070" data-name="Ellipse 267" opacity=".18" transform="translate(8658 3713)"/><circle id="Ellipse_161" cx="64" cy="64" r="64" fill="#707070" data-name="Ellipse 161" opacity=".18" transform="translate(4478 3713)"/><circle id="Ellipse_268" cx="64" cy="64" r="64" fill="#707070" data-name="Ellipse 268" opacity=".18" transform="translate(12838 3713)"/><circle id="Ellipse_63" cx="64" cy="64" r="64" fill="#707070" data-name="Ellipse 63" opacity=".18" transform="translate(2388 3713)"/><circle id="Ellipse_269" cx="64" cy="64" r="64" fill="#707070" data-name="Ellipse 269" opacity=".18" transform="translate(10748 3713)"/><circle id="Ellipse_132" cx="64" cy="64" r="64" fill="#707070" data-name="Ellipse 132" opacity=".18" transform="translate(6568 3713)"/><circle id="Ellipse_17" cx="64" cy="64" r="64" fill="#707070" data-name="Ellipse 17" opacity=".18" transform="translate(716 3713)"/><circle id="Ellipse_270" cx="64" cy="64" r="64" fill="#707070" data-name="Ellipse 270" opacity=".18" transform="translate(9076 3713)"/><circle id="Ellipse_153" cx="64" cy="64" r="64" fill="#707070" data-name="Ellipse 153" opacity=".18" transform="translate(4896 3713)"/><circle id="Ellipse_271" cx="64" cy="64" r="64" fill="#707070" data-name="Ellipse 271" opacity=".18" transform="translate(13256 3713)"/><circle id="Ellipse_64" cx="64" cy="64" r="64" fill="#707070" data-name="Ellipse 64" opacity=".18" transform="translate(2806 3713)"/><circle id="Ellipse_272" cx="64" cy="64" r="64" fill="#707070" data-name="Ellipse 272" opacity=".18" transform="translate(11166 3713)"/><circle id="Ellipse_133" cx="64" cy="64" r="64" fill="#707070" data-name="Ellipse 133" opacity=".18" transform="translate(6986 3713)"/><circle id="Ellipse_25" cx="64" cy="64" r="64" fill="#707070" data-name="Ellipse 25" opacity=".18" transform="translate(1134 3713)"/><circle id="Ellipse_273" cx="64" cy="64" r="64" fill="#707070" data-name="Ellipse 273" opacity=".18" transform="translate(9494 3713)"/><circle id="Ellipse_134" cx="64" cy="64" r="64" fill="#707070" data-name="Ellipse 134" opacity=".18" transform="translate(5314 3713)"/><circle id="Ellipse_274" cx="64" cy="64" r="64" fill="#707070" data-name="Ellipse 274" opacity=".18" transform="translate(13674 3713)"/><circle id="Ellipse_65" cx="64" cy="64" r="64" fill="#707070" data-name="Ellipse 65" opacity=".18" transform="translate(3224 3713)"/><circle id="Ellipse_275" cx="64" cy="64" r="64" fill="#707070" data-name="Ellipse 275" opacity=".18" transform="translate(11584 3713)"/><circle id="Ellipse_135" cx="64" cy="64" r="64" fill="#707070" data-name="Ellipse 135" opacity=".18" transform="translate(7404 3713)"/><circle id="Ellipse_33" cx="64" cy="64" r="64" fill="#707070" data-name="Ellipse 33" opacity=".18" transform="translate(1552 3713)"/><circle id="Ellipse_276" cx="64" cy="64" r="64" fill="#707070" data-name="Ellipse 276" opacity=".18" transform="translate(9912 3713)"/><circle id="Ellipse_136" cx="64" cy="64" r="64" fill="#707070" data-name="Ellipse 136" opacity=".18" transform="translate(5732 3713)"/><circle id="Ellipse_66" cx="64" cy="64" r="64" fill="#707070" data-name="Ellipse 66" opacity=".18" transform="translate(3642 3713)"/><circle id="Ellipse_278" cx="64" cy="64" r="64" fill="#707070" data-name="Ellipse 278" opacity=".18" transform="translate(12002 3713)"/><circle id="Ellipse_82" cx="64" cy="64" r="64" fill="#707070" data-name="Ellipse 82" opacity=".18" transform="translate(7822 3713)"/><circle id="Ellipse_41" cx="64" cy="64" r="64" fill="#707070" data-name="Ellipse 41" opacity=".18" transform="translate(1970 3713)"/><circle id="Ellipse_279" cx="64" cy="64" r="64" fill="#707070" data-name="Ellipse 279" opacity=".18" transform="translate(10330 3713)"/><circle id="Ellipse_137" cx="64" cy="64" r="64" fill="#707070" data-name="Ellipse 137" opacity=".18" transform="translate(6150 3713)"/><circle id="Ellipse_43" cx="64" cy="64" r="64" fill="#707070" data-name="Ellipse 43" opacity=".18" transform="translate(4060 3713)"/><circle id="Ellipse_281" cx="64" cy="64" r="64" fill="#707070" data-name="Ellipse 281" opacity=".18" transform="translate(12420 3713)"/><circle id="Ellipse_83" cx="64" cy="64" r="64" fill="#707070" data-name="Ellipse 83" opacity=".18" transform="translate(8240 3713)"/></g></svg>