<svg xmlns="http://www.w3.org/2000/svg" width="13504" height="3698" viewBox="0 0 13504 3698">
  <g id="Group_3" data-name="Group 3" transform="translate(-298 -143)">
    <circle id="Ellipse_2" data-name="Ellipse 2" cx="64" cy="64" r="64" transform="translate(298 143)" fill="#707070" opacity="0.18"/>
    <circle id="Ellipse_162" data-name="Ellipse 162" cx="64" cy="64" r="64" transform="translate(8658 143)" fill="#707070" opacity="0.18"/>
    <circle id="Ellipse_154" data-name="Ellipse 154" cx="64" cy="64" r="64" transform="translate(4478 143)" fill="#707070" opacity="0.18"/>
    <circle id="Ellipse_186" data-name="Ellipse 186" cx="64" cy="64" r="64" transform="translate(12838 143)" fill="#707070" opacity="0.18"/>
    <circle id="Ellipse_77" data-name="Ellipse 77" cx="64" cy="64" r="64" transform="translate(2388 143)" fill="#707070" opacity="0.18"/>
    <circle id="Ellipse_170" data-name="Ellipse 170" cx="64" cy="64" r="64" transform="translate(10748 143)" fill="#707070" opacity="0.18"/>
    <circle id="Ellipse_138" data-name="Ellipse 138" cx="64" cy="64" r="64" transform="translate(6568 143)" fill="#707070" opacity="0.18"/>
    <circle id="Ellipse_10" data-name="Ellipse 10" cx="64" cy="64" r="64" transform="translate(716 143)" fill="#707070" opacity="0.18"/>
    <circle id="Ellipse_163" data-name="Ellipse 163" cx="64" cy="64" r="64" transform="translate(9076 143)" fill="#707070" opacity="0.18"/>
    <circle id="Ellipse_139" data-name="Ellipse 139" cx="64" cy="64" r="64" transform="translate(4896 143)" fill="#707070" opacity="0.18"/>
    <circle id="Ellipse_187" data-name="Ellipse 187" cx="64" cy="64" r="64" transform="translate(13256 143)" fill="#707070" opacity="0.18"/>
    <circle id="Ellipse_78" data-name="Ellipse 78" cx="64" cy="64" r="64" transform="translate(2806 143)" fill="#707070" opacity="0.18"/>
    <circle id="Ellipse_188" data-name="Ellipse 188" cx="64" cy="64" r="64" transform="translate(11166 143)" fill="#707070" opacity="0.18"/>
    <circle id="Ellipse_140" data-name="Ellipse 140" cx="64" cy="64" r="64" transform="translate(6986 143)" fill="#707070" opacity="0.18"/>
    <circle id="Ellipse_18" data-name="Ellipse 18" cx="64" cy="64" r="64" transform="translate(1134 143)" fill="#707070" opacity="0.18"/>
    <circle id="Ellipse_164" data-name="Ellipse 164" cx="64" cy="64" r="64" transform="translate(9494 143)" fill="#707070" opacity="0.18"/>
    <circle id="Ellipse_141" data-name="Ellipse 141" cx="64" cy="64" r="64" transform="translate(5314 143)" fill="#707070" opacity="0.18"/>
    <circle id="Ellipse_189" data-name="Ellipse 189" cx="64" cy="64" r="64" transform="translate(13674 143)" fill="#707070" opacity="0.18"/>
    <circle id="Ellipse_79" data-name="Ellipse 79" cx="64" cy="64" r="64" transform="translate(3224 143)" fill="#707070" opacity="0.18"/>
    <circle id="Ellipse_190" data-name="Ellipse 190" cx="64" cy="64" r="64" transform="translate(11584 143)" fill="#707070" opacity="0.18"/>
    <circle id="Ellipse_142" data-name="Ellipse 142" cx="64" cy="64" r="64" transform="translate(7404 143)" fill="#707070" opacity="0.18"/>
    <circle id="Ellipse_26" data-name="Ellipse 26" cx="64" cy="64" r="64" transform="translate(1552 143)" fill="#707070" opacity="0.18"/>
    <circle id="Ellipse_165" data-name="Ellipse 165" cx="64" cy="64" r="64" transform="translate(9912 143)" fill="#707070" opacity="0.18"/>
    <circle id="Ellipse_143" data-name="Ellipse 143" cx="64" cy="64" r="64" transform="translate(5732 143)" fill="#707070" opacity="0.18"/>
    <circle id="Ellipse_80" data-name="Ellipse 80" cx="64" cy="64" r="64" transform="translate(3642 143)" fill="#707070" opacity="0.18"/>
    <circle id="Ellipse_192" data-name="Ellipse 192" cx="64" cy="64" r="64" transform="translate(12002 143)" fill="#707070" opacity="0.18"/>
    <circle id="Ellipse_144" data-name="Ellipse 144" cx="64" cy="64" r="64" transform="translate(7822 143)" fill="#707070" opacity="0.18"/>
    <circle id="Ellipse_34" data-name="Ellipse 34" cx="64" cy="64" r="64" transform="translate(1970 143)" fill="#707070" opacity="0.18"/>
    <circle id="Ellipse_171" data-name="Ellipse 171" cx="64" cy="64" r="64" transform="translate(10330 143)" fill="#707070" opacity="0.18"/>
    <circle id="Ellipse_145" data-name="Ellipse 145" cx="64" cy="64" r="64" transform="translate(6150 143)" fill="#707070" opacity="0.18"/>
    <circle id="Ellipse_81" data-name="Ellipse 81" cx="64" cy="64" r="64" transform="translate(4060 143)" fill="#707070" opacity="0.18"/>
    <circle id="Ellipse_193" data-name="Ellipse 193" cx="64" cy="64" r="64" transform="translate(12420 143)" fill="#707070" opacity="0.18"/>
    <circle id="Ellipse_146" data-name="Ellipse 146" cx="64" cy="64" r="64" transform="translate(8240 143)" fill="#707070" opacity="0.18"/>
    <circle id="Ellipse_9" data-name="Ellipse 9" cx="64" cy="64" r="64" transform="translate(298 2183)" fill="#707070" opacity="0.18"/>
    <circle id="Ellipse_194" data-name="Ellipse 194" cx="64" cy="64" r="64" transform="translate(8658 2183)" fill="#707070" opacity="0.18"/>
    <circle id="Ellipse_155" data-name="Ellipse 155" cx="64" cy="64" r="64" transform="translate(4478 2183)" fill="#707070" opacity="0.18"/>
    <circle id="Ellipse_195" data-name="Ellipse 195" cx="64" cy="64" r="64" transform="translate(12838 2183)" fill="#707070" opacity="0.18"/>
    <circle id="Ellipse_44" data-name="Ellipse 44" cx="64" cy="64" r="64" transform="translate(2388 2183)" fill="#707070" opacity="0.18"/>
    <circle id="Ellipse_196" data-name="Ellipse 196" cx="64" cy="64" r="64" transform="translate(10748 2183)" fill="#707070" opacity="0.18"/>
    <circle id="Ellipse_86" data-name="Ellipse 86" cx="64" cy="64" r="64" transform="translate(6568 2183)" fill="#707070" opacity="0.18"/>
    <circle id="Ellipse_14" data-name="Ellipse 14" cx="64" cy="64" r="64" transform="translate(716 2183)" fill="#707070" opacity="0.18"/>
    <circle id="Ellipse_197" data-name="Ellipse 197" cx="64" cy="64" r="64" transform="translate(9076 2183)" fill="#707070" opacity="0.18"/>
    <circle id="Ellipse_147" data-name="Ellipse 147" cx="64" cy="64" r="64" transform="translate(4896 2183)" fill="#707070" opacity="0.18"/>
    <circle id="Ellipse_198" data-name="Ellipse 198" cx="64" cy="64" r="64" transform="translate(13256 2183)" fill="#707070" opacity="0.18"/>
    <circle id="Ellipse_45" data-name="Ellipse 45" cx="64" cy="64" r="64" transform="translate(2806 2183)" fill="#707070" opacity="0.18"/>
    <circle id="Ellipse_199" data-name="Ellipse 199" cx="64" cy="64" r="64" transform="translate(11166 2183)" fill="#707070" opacity="0.18"/>
    <circle id="Ellipse_87" data-name="Ellipse 87" cx="64" cy="64" r="64" transform="translate(6986 2183)" fill="#707070" opacity="0.18"/>
    <circle id="Ellipse_22" data-name="Ellipse 22" cx="64" cy="64" r="64" transform="translate(1134 2183)" fill="#707070" opacity="0.18"/>
    <circle id="Ellipse_200" data-name="Ellipse 200" cx="64" cy="64" r="64" transform="translate(9494 2183)" fill="#707070" opacity="0.18"/>
    <circle id="Ellipse_88" data-name="Ellipse 88" cx="64" cy="64" r="64" transform="translate(5314 2183)" fill="#707070" opacity="0.18"/>
    <circle id="Ellipse_201" data-name="Ellipse 201" cx="64" cy="64" r="64" transform="translate(13674 2183)" fill="#707070" opacity="0.18"/>
    <circle id="Ellipse_46" data-name="Ellipse 46" cx="64" cy="64" r="64" transform="translate(3224 2183)" fill="#707070" opacity="0.18"/>
    <circle id="Ellipse_202" data-name="Ellipse 202" cx="64" cy="64" r="64" transform="translate(11584 2183)" fill="#707070" opacity="0.18"/>
    <circle id="Ellipse_89" data-name="Ellipse 89" cx="64" cy="64" r="64" transform="translate(7404 2183)" fill="#707070" opacity="0.18"/>
    <circle id="Ellipse_30" data-name="Ellipse 30" cx="64" cy="64" r="64" transform="translate(1552 2183)" fill="#707070" opacity="0.18"/>
    <circle id="Ellipse_203" data-name="Ellipse 203" cx="64" cy="64" r="64" transform="translate(9912 2183)" fill="#707070" opacity="0.18"/>
    <circle id="Ellipse_90" data-name="Ellipse 90" cx="64" cy="64" r="64" transform="translate(5732 2183)" fill="#707070" opacity="0.18"/>
    <circle id="Ellipse_47" data-name="Ellipse 47" cx="64" cy="64" r="64" transform="translate(3642 2183)" fill="#707070" opacity="0.18"/>
    <circle id="Ellipse_205" data-name="Ellipse 205" cx="64" cy="64" r="64" transform="translate(12002 2183)" fill="#707070" opacity="0.18"/>
    <circle id="Ellipse_91" data-name="Ellipse 91" cx="64" cy="64" r="64" transform="translate(7822 2183)" fill="#707070" opacity="0.18"/>
    <circle id="Ellipse_38" data-name="Ellipse 38" cx="64" cy="64" r="64" transform="translate(1970 2183)" fill="#707070" opacity="0.18"/>
    <circle id="Ellipse_206" data-name="Ellipse 206" cx="64" cy="64" r="64" transform="translate(10330 2183)" fill="#707070" opacity="0.18"/>
    <circle id="Ellipse_92" data-name="Ellipse 92" cx="64" cy="64" r="64" transform="translate(6150 2183)" fill="#707070" opacity="0.18"/>
    <circle id="Ellipse_48" data-name="Ellipse 48" cx="64" cy="64" r="64" transform="translate(4060 2183)" fill="#707070" opacity="0.18"/>
    <circle id="Ellipse_207" data-name="Ellipse 207" cx="64" cy="64" r="64" transform="translate(12420 2183)" fill="#707070" opacity="0.18"/>
    <circle id="Ellipse_93" data-name="Ellipse 93" cx="64" cy="64" r="64" transform="translate(8240 2183)" fill="#707070" opacity="0.18"/>
    <circle id="Ellipse_3" data-name="Ellipse 3" cx="64" cy="64" r="64" transform="translate(298 653)" fill="#707070" opacity="0.18"/>
    <circle id="Ellipse_166" data-name="Ellipse 166" cx="64" cy="64" r="64" transform="translate(8658 653)" fill="#707070" opacity="0.18"/>
    <circle id="Ellipse_156" data-name="Ellipse 156" cx="64" cy="64" r="64" transform="translate(4478 653)" fill="#707070" opacity="0.18"/>
    <circle id="Ellipse_208" data-name="Ellipse 208" cx="64" cy="64" r="64" transform="translate(12838 653)" fill="#707070" opacity="0.18"/>
    <circle id="Ellipse_72" data-name="Ellipse 72" cx="64" cy="64" r="64" transform="translate(2388 653)" fill="#707070" opacity="0.18"/>
    <circle id="Ellipse_172" data-name="Ellipse 172" cx="64" cy="64" r="64" transform="translate(10748 653)" fill="#707070" opacity="0.18"/>
    <circle id="Ellipse_94" data-name="Ellipse 94" cx="64" cy="64" r="64" transform="translate(6568 653)" fill="#707070" opacity="0.18"/>
    <circle id="Ellipse_11" data-name="Ellipse 11" cx="64" cy="64" r="64" transform="translate(716 653)" fill="#707070" opacity="0.18"/>
    <circle id="Ellipse_167" data-name="Ellipse 167" cx="64" cy="64" r="64" transform="translate(9076 653)" fill="#707070" opacity="0.18"/>
    <circle id="Ellipse_148" data-name="Ellipse 148" cx="64" cy="64" r="64" transform="translate(4896 653)" fill="#707070" opacity="0.18"/>
    <circle id="Ellipse_209" data-name="Ellipse 209" cx="64" cy="64" r="64" transform="translate(13256 653)" fill="#707070" opacity="0.18"/>
    <circle id="Ellipse_73" data-name="Ellipse 73" cx="64" cy="64" r="64" transform="translate(2806 653)" fill="#707070" opacity="0.18"/>
    <circle id="Ellipse_210" data-name="Ellipse 210" cx="64" cy="64" r="64" transform="translate(11166 653)" fill="#707070" opacity="0.18"/>
    <circle id="Ellipse_95" data-name="Ellipse 95" cx="64" cy="64" r="64" transform="translate(6986 653)" fill="#707070" opacity="0.18"/>
    <circle id="Ellipse_19" data-name="Ellipse 19" cx="64" cy="64" r="64" transform="translate(1134 653)" fill="#707070" opacity="0.18"/>
    <circle id="Ellipse_168" data-name="Ellipse 168" cx="64" cy="64" r="64" transform="translate(9494 653)" fill="#707070" opacity="0.18"/>
    <circle id="Ellipse_96" data-name="Ellipse 96" cx="64" cy="64" r="64" transform="translate(5314 653)" fill="#707070" opacity="0.18"/>
    <circle id="Ellipse_211" data-name="Ellipse 211" cx="64" cy="64" r="64" transform="translate(13674 653)" fill="#707070" opacity="0.18"/>
    <circle id="Ellipse_74" data-name="Ellipse 74" cx="64" cy="64" r="64" transform="translate(3224 653)" fill="#707070" opacity="0.18"/>
    <circle id="Ellipse_212" data-name="Ellipse 212" cx="64" cy="64" r="64" transform="translate(11584 653)" fill="#707070" opacity="0.18"/>
    <circle id="Ellipse_97" data-name="Ellipse 97" cx="64" cy="64" r="64" transform="translate(7404 653)" fill="#707070" opacity="0.18"/>
    <circle id="Ellipse_27" data-name="Ellipse 27" cx="64" cy="64" r="64" transform="translate(1552 653)" fill="#707070" opacity="0.18"/>
    <circle id="Ellipse_169" data-name="Ellipse 169" cx="64" cy="64" r="64" transform="translate(9912 653)" fill="#707070" opacity="0.18"/>
    <circle id="Ellipse_98" data-name="Ellipse 98" cx="64" cy="64" r="64" transform="translate(5732 653)" fill="#707070" opacity="0.18"/>
    <circle id="Ellipse_75" data-name="Ellipse 75" cx="64" cy="64" r="64" transform="translate(3642 653)" fill="#707070" opacity="0.18"/>
    <circle id="Ellipse_214" data-name="Ellipse 214" cx="64" cy="64" r="64" transform="translate(12002 653)" fill="#707070" opacity="0.18"/>
    <circle id="Ellipse_99" data-name="Ellipse 99" cx="64" cy="64" r="64" transform="translate(7822 653)" fill="#707070" opacity="0.18"/>
    <circle id="Ellipse_35" data-name="Ellipse 35" cx="64" cy="64" r="64" transform="translate(1970 653)" fill="#707070" opacity="0.18"/>
    <circle id="Ellipse_173" data-name="Ellipse 173" cx="64" cy="64" r="64" transform="translate(10330 653)" fill="#707070" opacity="0.18"/>
    <circle id="Ellipse_100" data-name="Ellipse 100" cx="64" cy="64" r="64" transform="translate(6150 653)" fill="#707070" opacity="0.18"/>
    <circle id="Ellipse_76" data-name="Ellipse 76" cx="64" cy="64" r="64" transform="translate(4060 653)" fill="#707070" opacity="0.18"/>
    <circle id="Ellipse_215" data-name="Ellipse 215" cx="64" cy="64" r="64" transform="translate(12420 653)" fill="#707070" opacity="0.18"/>
    <circle id="Ellipse_101" data-name="Ellipse 101" cx="64" cy="64" r="64" transform="translate(8240 653)" fill="#707070" opacity="0.18"/>
    <circle id="Ellipse_7" data-name="Ellipse 7" cx="64" cy="64" r="64" transform="translate(298 2693)" fill="#707070" opacity="0.18"/>
    <circle id="Ellipse_216" data-name="Ellipse 216" cx="64" cy="64" r="64" transform="translate(8658 2693)" fill="#707070" opacity="0.18"/>
    <circle id="Ellipse_157" data-name="Ellipse 157" cx="64" cy="64" r="64" transform="translate(4478 2693)" fill="#707070" opacity="0.18"/>
    <circle id="Ellipse_217" data-name="Ellipse 217" cx="64" cy="64" r="64" transform="translate(12838 2693)" fill="#707070" opacity="0.18"/>
    <circle id="Ellipse_49" data-name="Ellipse 49" cx="64" cy="64" r="64" transform="translate(2388 2693)" fill="#707070" opacity="0.18"/>
    <circle id="Ellipse_218" data-name="Ellipse 218" cx="64" cy="64" r="64" transform="translate(10748 2693)" fill="#707070" opacity="0.18"/>
    <circle id="Ellipse_102" data-name="Ellipse 102" cx="64" cy="64" r="64" transform="translate(6568 2693)" fill="#707070" opacity="0.18"/>
    <circle id="Ellipse_15" data-name="Ellipse 15" cx="64" cy="64" r="64" transform="translate(716 2693)" fill="#707070" opacity="0.18"/>
    <circle id="Ellipse_219" data-name="Ellipse 219" cx="64" cy="64" r="64" transform="translate(9076 2693)" fill="#707070" opacity="0.18"/>
    <circle id="Ellipse_149" data-name="Ellipse 149" cx="64" cy="64" r="64" transform="translate(4896 2693)" fill="#707070" opacity="0.18"/>
    <circle id="Ellipse_220" data-name="Ellipse 220" cx="64" cy="64" r="64" transform="translate(13256 2693)" fill="#707070" opacity="0.18"/>
    <circle id="Ellipse_50" data-name="Ellipse 50" cx="64" cy="64" r="64" transform="translate(2806 2693)" fill="#707070" opacity="0.18"/>
    <circle id="Ellipse_221" data-name="Ellipse 221" cx="64" cy="64" r="64" transform="translate(11166 2693)" fill="#707070" opacity="0.18"/>
    <circle id="Ellipse_103" data-name="Ellipse 103" cx="64" cy="64" r="64" transform="translate(6986 2693)" fill="#707070" opacity="0.18"/>
    <circle id="Ellipse_23" data-name="Ellipse 23" cx="64" cy="64" r="64" transform="translate(1134 2693)" fill="#707070" opacity="0.18"/>
    <circle id="Ellipse_222" data-name="Ellipse 222" cx="64" cy="64" r="64" transform="translate(9494 2693)" fill="#707070" opacity="0.18"/>
    <circle id="Ellipse_104" data-name="Ellipse 104" cx="64" cy="64" r="64" transform="translate(5314 2693)" fill="#707070" opacity="0.18"/>
    <circle id="Ellipse_223" data-name="Ellipse 223" cx="64" cy="64" r="64" transform="translate(13674 2693)" fill="#707070" opacity="0.18"/>
    <circle id="Ellipse_51" data-name="Ellipse 51" cx="64" cy="64" r="64" transform="translate(3224 2693)" fill="#707070" opacity="0.18"/>
    <circle id="Ellipse_224" data-name="Ellipse 224" cx="64" cy="64" r="64" transform="translate(11584 2693)" fill="#707070" opacity="0.18"/>
    <circle id="Ellipse_105" data-name="Ellipse 105" cx="64" cy="64" r="64" transform="translate(7404 2693)" fill="#707070" opacity="0.18"/>
    <circle id="Ellipse_31" data-name="Ellipse 31" cx="64" cy="64" r="64" transform="translate(1552 2693)" fill="#707070" opacity="0.18"/>
    <circle id="Ellipse_225" data-name="Ellipse 225" cx="64" cy="64" r="64" transform="translate(9912 2693)" fill="#707070" opacity="0.18"/>
    <circle id="Ellipse_106" data-name="Ellipse 106" cx="64" cy="64" r="64" transform="translate(5732 2693)" fill="#707070" opacity="0.18"/>
    <circle id="Ellipse_52" data-name="Ellipse 52" cx="64" cy="64" r="64" transform="translate(3642 2693)" fill="#707070" opacity="0.18"/>
    <circle id="Ellipse_227" data-name="Ellipse 227" cx="64" cy="64" r="64" transform="translate(12002 2693)" fill="#707070" opacity="0.18"/>
    <circle id="Ellipse_107" data-name="Ellipse 107" cx="64" cy="64" r="64" transform="translate(7822 2693)" fill="#707070" opacity="0.18"/>
    <circle id="Ellipse_39" data-name="Ellipse 39" cx="64" cy="64" r="64" transform="translate(1970 2693)" fill="#707070" opacity="0.18"/>
    <circle id="Ellipse_228" data-name="Ellipse 228" cx="64" cy="64" r="64" transform="translate(10330 2693)" fill="#707070" opacity="0.18"/>
    <circle id="Ellipse_108" data-name="Ellipse 108" cx="64" cy="64" r="64" transform="translate(6150 2693)" fill="#707070" opacity="0.18"/>
    <circle id="Ellipse_53" data-name="Ellipse 53" cx="64" cy="64" r="64" transform="translate(4060 2693)" fill="#707070" opacity="0.18"/>
    <circle id="Ellipse_229" data-name="Ellipse 229" cx="64" cy="64" r="64" transform="translate(12420 2693)" fill="#707070" opacity="0.18"/>
    <circle id="Ellipse_109" data-name="Ellipse 109" cx="64" cy="64" r="64" transform="translate(8240 2693)" fill="#707070" opacity="0.18"/>
    <circle id="Ellipse_4" data-name="Ellipse 4" cx="64" cy="64" r="64" transform="translate(298 1163)" fill="#707070" opacity="0.18"/>
    <circle id="Ellipse_174" data-name="Ellipse 174" cx="64" cy="64" r="64" transform="translate(8658 1163)" fill="#707070" opacity="0.18"/>
    <circle id="Ellipse_158" data-name="Ellipse 158" cx="64" cy="64" r="64" transform="translate(4478 1163)" fill="#707070" opacity="0.18"/>
    <circle id="Ellipse_230" data-name="Ellipse 230" cx="64" cy="64" r="64" transform="translate(12838 1163)" fill="#707070" opacity="0.18"/>
    <circle id="Ellipse_67" data-name="Ellipse 67" cx="64" cy="64" r="64" transform="translate(2388 1163)" fill="#707070" opacity="0.18"/>
    <circle id="Ellipse_175" data-name="Ellipse 175" cx="64" cy="64" r="64" transform="translate(10748 1163)" fill="#707070" opacity="0.18"/>
    <circle id="Ellipse_110" data-name="Ellipse 110" cx="64" cy="64" r="64" transform="translate(6568 1163)" fill="#707070" opacity="0.18"/>
    <circle id="Ellipse_12" data-name="Ellipse 12" cx="64" cy="64" r="64" transform="translate(716 1163)" fill="#707070" opacity="0.18"/>
    <circle id="Ellipse_176" data-name="Ellipse 176" cx="64" cy="64" r="64" transform="translate(9076 1163)" fill="#707070" opacity="0.18"/>
    <circle id="Ellipse_150" data-name="Ellipse 150" cx="64" cy="64" r="64" transform="translate(4896 1163)" fill="#707070" opacity="0.18"/>
    <circle id="Ellipse_231" data-name="Ellipse 231" cx="64" cy="64" r="64" transform="translate(13256 1163)" fill="#707070" opacity="0.18"/>
    <circle id="Ellipse_68" data-name="Ellipse 68" cx="64" cy="64" r="64" transform="translate(2806 1163)" fill="#707070" opacity="0.18"/>
    <circle id="Ellipse_232" data-name="Ellipse 232" cx="64" cy="64" r="64" transform="translate(11166 1163)" fill="#707070" opacity="0.18"/>
    <circle id="Ellipse_111" data-name="Ellipse 111" cx="64" cy="64" r="64" transform="translate(6986 1163)" fill="#707070" opacity="0.18"/>
    <circle id="Ellipse_20" data-name="Ellipse 20" cx="64" cy="64" r="64" transform="translate(1134 1163)" fill="#707070" opacity="0.18"/>
    <circle id="Ellipse_177" data-name="Ellipse 177" cx="64" cy="64" r="64" transform="translate(9494 1163)" fill="#707070" opacity="0.18"/>
    <circle id="Ellipse_112" data-name="Ellipse 112" cx="64" cy="64" r="64" transform="translate(5314 1163)" fill="#707070" opacity="0.18"/>
    <circle id="Ellipse_233" data-name="Ellipse 233" cx="64" cy="64" r="64" transform="translate(13674 1163)" fill="#707070" opacity="0.18"/>
    <circle id="Ellipse_69" data-name="Ellipse 69" cx="64" cy="64" r="64" transform="translate(3224 1163)" fill="#707070" opacity="0.18"/>
    <circle id="Ellipse_234" data-name="Ellipse 234" cx="64" cy="64" r="64" transform="translate(11584 1163)" fill="#707070" opacity="0.18"/>
    <circle id="Ellipse_113" data-name="Ellipse 113" cx="64" cy="64" r="64" transform="translate(7404 1163)" fill="#707070" opacity="0.18"/>
    <circle id="Ellipse_28" data-name="Ellipse 28" cx="64" cy="64" r="64" transform="translate(1552 1163)" fill="#707070" opacity="0.18"/>
    <circle id="Ellipse_178" data-name="Ellipse 178" cx="64" cy="64" r="64" transform="translate(9912 1163)" fill="#707070" opacity="0.18"/>
    <circle id="Ellipse_114" data-name="Ellipse 114" cx="64" cy="64" r="64" transform="translate(5732 1163)" fill="#707070" opacity="0.18"/>
    <circle id="Ellipse_70" data-name="Ellipse 70" cx="64" cy="64" r="64" transform="translate(3642 1163)" fill="#707070" opacity="0.18"/>
    <circle id="Ellipse_236" data-name="Ellipse 236" cx="64" cy="64" r="64" transform="translate(12002 1163)" fill="#707070" opacity="0.18"/>
    <circle id="Ellipse_115" data-name="Ellipse 115" cx="64" cy="64" r="64" transform="translate(7822 1163)" fill="#707070" opacity="0.18"/>
    <circle id="Ellipse_36" data-name="Ellipse 36" cx="64" cy="64" r="64" transform="translate(1970 1163)" fill="#707070" opacity="0.18"/>
    <circle id="Ellipse_179" data-name="Ellipse 179" cx="64" cy="64" r="64" transform="translate(10330 1163)" fill="#707070" opacity="0.18"/>
    <circle id="Ellipse_116" data-name="Ellipse 116" cx="64" cy="64" r="64" transform="translate(6150 1163)" fill="#707070" opacity="0.18"/>
    <circle id="Ellipse_71" data-name="Ellipse 71" cx="64" cy="64" r="64" transform="translate(4060 1163)" fill="#707070" opacity="0.18"/>
    <circle id="Ellipse_237" data-name="Ellipse 237" cx="64" cy="64" r="64" transform="translate(12420 1163)" fill="#707070" opacity="0.18"/>
    <circle id="Ellipse_117" data-name="Ellipse 117" cx="64" cy="64" r="64" transform="translate(8240 1163)" fill="#707070" opacity="0.18"/>
    <circle id="Ellipse_8" data-name="Ellipse 8" cx="64" cy="64" r="64" transform="translate(298 3203)" fill="#707070" opacity="0.18"/>
    <circle id="Ellipse_238" data-name="Ellipse 238" cx="64" cy="64" r="64" transform="translate(8658 3203)" fill="#707070" opacity="0.18"/>
    <circle id="Ellipse_159" data-name="Ellipse 159" cx="64" cy="64" r="64" transform="translate(4478 3203)" fill="#707070" opacity="0.18"/>
    <circle id="Ellipse_239" data-name="Ellipse 239" cx="64" cy="64" r="64" transform="translate(12838 3203)" fill="#707070" opacity="0.18"/>
    <circle id="Ellipse_54" data-name="Ellipse 54" cx="64" cy="64" r="64" transform="translate(2388 3203)" fill="#707070" opacity="0.18"/>
    <circle id="Ellipse_240" data-name="Ellipse 240" cx="64" cy="64" r="64" transform="translate(10748 3203)" fill="#707070" opacity="0.18"/>
    <circle id="Ellipse_118" data-name="Ellipse 118" cx="64" cy="64" r="64" transform="translate(6568 3203)" fill="#707070" opacity="0.18"/>
    <circle id="Ellipse_16" data-name="Ellipse 16" cx="64" cy="64" r="64" transform="translate(716 3203)" fill="#707070" opacity="0.18"/>
    <circle id="Ellipse_241" data-name="Ellipse 241" cx="64" cy="64" r="64" transform="translate(9076 3203)" fill="#707070" opacity="0.18"/>
    <circle id="Ellipse_151" data-name="Ellipse 151" cx="64" cy="64" r="64" transform="translate(4896 3203)" fill="#707070" opacity="0.18"/>
    <circle id="Ellipse_242" data-name="Ellipse 242" cx="64" cy="64" r="64" transform="translate(13256 3203)" fill="#707070" opacity="0.18"/>
    <circle id="Ellipse_55" data-name="Ellipse 55" cx="64" cy="64" r="64" transform="translate(2806 3203)" fill="#707070" opacity="0.18"/>
    <circle id="Ellipse_243" data-name="Ellipse 243" cx="64" cy="64" r="64" transform="translate(11166 3203)" fill="#707070" opacity="0.18"/>
    <circle id="Ellipse_119" data-name="Ellipse 119" cx="64" cy="64" r="64" transform="translate(6986 3203)" fill="#707070" opacity="0.18"/>
    <circle id="Ellipse_24" data-name="Ellipse 24" cx="64" cy="64" r="64" transform="translate(1134 3203)" fill="#707070" opacity="0.18"/>
    <circle id="Ellipse_244" data-name="Ellipse 244" cx="64" cy="64" r="64" transform="translate(9494 3203)" fill="#707070" opacity="0.18"/>
    <circle id="Ellipse_120" data-name="Ellipse 120" cx="64" cy="64" r="64" transform="translate(5314 3203)" fill="#707070" opacity="0.18"/>
    <circle id="Ellipse_245" data-name="Ellipse 245" cx="64" cy="64" r="64" transform="translate(13674 3203)" fill="#707070" opacity="0.18"/>
    <circle id="Ellipse_56" data-name="Ellipse 56" cx="64" cy="64" r="64" transform="translate(3224 3203)" fill="#707070" opacity="0.18"/>
    <circle id="Ellipse_246" data-name="Ellipse 246" cx="64" cy="64" r="64" transform="translate(11584 3203)" fill="#707070" opacity="0.18"/>
    <circle id="Ellipse_121" data-name="Ellipse 121" cx="64" cy="64" r="64" transform="translate(7404 3203)" fill="#707070" opacity="0.18"/>
    <circle id="Ellipse_32" data-name="Ellipse 32" cx="64" cy="64" r="64" transform="translate(1552 3203)" fill="#707070" opacity="0.18"/>
    <circle id="Ellipse_247" data-name="Ellipse 247" cx="64" cy="64" r="64" transform="translate(9912 3203)" fill="#707070" opacity="0.18"/>
    <circle id="Ellipse_122" data-name="Ellipse 122" cx="64" cy="64" r="64" transform="translate(5732 3203)" fill="#707070" opacity="0.18"/>
    <circle id="Ellipse_57" data-name="Ellipse 57" cx="64" cy="64" r="64" transform="translate(3642 3203)" fill="#707070" opacity="0.18"/>
    <circle id="Ellipse_249" data-name="Ellipse 249" cx="64" cy="64" r="64" transform="translate(12002 3203)" fill="#707070" opacity="0.18"/>
    <circle id="Ellipse_84" data-name="Ellipse 84" cx="64" cy="64" r="64" transform="translate(7822 3203)" fill="#707070" opacity="0.18"/>
    <circle id="Ellipse_40" data-name="Ellipse 40" cx="64" cy="64" r="64" transform="translate(1970 3203)" fill="#707070" opacity="0.18"/>
    <circle id="Ellipse_250" data-name="Ellipse 250" cx="64" cy="64" r="64" transform="translate(10330 3203)" fill="#707070" opacity="0.18"/>
    <circle id="Ellipse_123" data-name="Ellipse 123" cx="64" cy="64" r="64" transform="translate(6150 3203)" fill="#707070" opacity="0.18"/>
    <circle id="Ellipse_42" data-name="Ellipse 42" cx="64" cy="64" r="64" transform="translate(4060 3203)" fill="#707070" opacity="0.18"/>
    <circle id="Ellipse_251" data-name="Ellipse 251" cx="64" cy="64" r="64" transform="translate(12420 3203)" fill="#707070" opacity="0.18"/>
    <circle id="Ellipse_85" data-name="Ellipse 85" cx="64" cy="64" r="64" transform="translate(8240 3203)" fill="#707070" opacity="0.18"/>
    <circle id="Ellipse_5" data-name="Ellipse 5" cx="64" cy="64" r="64" transform="translate(298 1673)" fill="#707070" opacity="0.18"/>
    <circle id="Ellipse_180" data-name="Ellipse 180" cx="64" cy="64" r="64" transform="translate(8658 1673)" fill="#707070" opacity="0.18"/>
    <circle id="Ellipse_160" data-name="Ellipse 160" cx="64" cy="64" r="64" transform="translate(4478 1673)" fill="#707070" opacity="0.18"/>
    <circle id="Ellipse_252" data-name="Ellipse 252" cx="64" cy="64" r="64" transform="translate(12838 1673)" fill="#707070" opacity="0.18"/>
    <circle id="Ellipse_58" data-name="Ellipse 58" cx="64" cy="64" r="64" transform="translate(2388 1673)" fill="#707070" opacity="0.18"/>
    <circle id="Ellipse_181" data-name="Ellipse 181" cx="64" cy="64" r="64" transform="translate(10748 1673)" fill="#707070" opacity="0.18"/>
    <circle id="Ellipse_124" data-name="Ellipse 124" cx="64" cy="64" r="64" transform="translate(6568 1673)" fill="#707070" opacity="0.18"/>
    <circle id="Ellipse_13" data-name="Ellipse 13" cx="64" cy="64" r="64" transform="translate(716 1673)" fill="#707070" opacity="0.18"/>
    <circle id="Ellipse_182" data-name="Ellipse 182" cx="64" cy="64" r="64" transform="translate(9076 1673)" fill="#707070" opacity="0.18"/>
    <circle id="Ellipse_152" data-name="Ellipse 152" cx="64" cy="64" r="64" transform="translate(4896 1673)" fill="#707070" opacity="0.18"/>
    <circle id="Ellipse_253" data-name="Ellipse 253" cx="64" cy="64" r="64" transform="translate(13256 1673)" fill="#707070" opacity="0.18"/>
    <circle id="Ellipse_59" data-name="Ellipse 59" cx="64" cy="64" r="64" transform="translate(2806 1673)" fill="#707070" opacity="0.18"/>
    <circle id="Ellipse_254" data-name="Ellipse 254" cx="64" cy="64" r="64" transform="translate(11166 1673)" fill="#707070" opacity="0.18"/>
    <circle id="Ellipse_125" data-name="Ellipse 125" cx="64" cy="64" r="64" transform="translate(6986 1673)" fill="#707070" opacity="0.18"/>
    <circle id="Ellipse_21" data-name="Ellipse 21" cx="64" cy="64" r="64" transform="translate(1134 1673)" fill="#707070" opacity="0.18"/>
    <circle id="Ellipse_183" data-name="Ellipse 183" cx="64" cy="64" r="64" transform="translate(9494 1673)" fill="#707070" opacity="0.18"/>
    <circle id="Ellipse_126" data-name="Ellipse 126" cx="64" cy="64" r="64" transform="translate(5314 1673)" fill="#707070" opacity="0.18"/>
    <circle id="Ellipse_255" data-name="Ellipse 255" cx="64" cy="64" r="64" transform="translate(13674 1673)" fill="#707070" opacity="0.18"/>
    <circle id="Ellipse_60" data-name="Ellipse 60" cx="64" cy="64" r="64" transform="translate(3224 1673)" fill="#707070" opacity="0.18"/>
    <circle id="Ellipse_256" data-name="Ellipse 256" cx="64" cy="64" r="64" transform="translate(11584 1673)" fill="#707070" opacity="0.18"/>
    <circle id="Ellipse_127" data-name="Ellipse 127" cx="64" cy="64" r="64" transform="translate(7404 1673)" fill="#707070" opacity="0.18"/>
    <circle id="Ellipse_29" data-name="Ellipse 29" cx="64" cy="64" r="64" transform="translate(1552 1673)" fill="#707070" opacity="0.18"/>
    <circle id="Ellipse_184" data-name="Ellipse 184" cx="64" cy="64" r="64" transform="translate(9912 1673)" fill="#707070" opacity="0.18"/>
    <circle id="Ellipse_128" data-name="Ellipse 128" cx="64" cy="64" r="64" transform="translate(5732 1673)" fill="#707070" opacity="0.18"/>
    <circle id="Ellipse_61" data-name="Ellipse 61" cx="64" cy="64" r="64" transform="translate(3642 1673)" fill="#707070" opacity="0.18"/>
    <circle id="Ellipse_258" data-name="Ellipse 258" cx="64" cy="64" r="64" transform="translate(12002 1673)" fill="#707070" opacity="0.18"/>
    <circle id="Ellipse_129" data-name="Ellipse 129" cx="64" cy="64" r="64" transform="translate(7822 1673)" fill="#707070" opacity="0.18"/>
    <circle id="Ellipse_37" data-name="Ellipse 37" cx="64" cy="64" r="64" transform="translate(1970 1673)" fill="#707070" opacity="0.18"/>
    <circle id="Ellipse_185" data-name="Ellipse 185" cx="64" cy="64" r="64" transform="translate(10330 1673)" fill="#707070" opacity="0.18"/>
    <circle id="Ellipse_130" data-name="Ellipse 130" cx="64" cy="64" r="64" transform="translate(6150 1673)" fill="#707070" opacity="0.18"/>
    <circle id="Ellipse_62" data-name="Ellipse 62" cx="64" cy="64" r="64" transform="translate(4060 1673)" fill="#707070" opacity="0.18"/>
    <circle id="Ellipse_259" data-name="Ellipse 259" cx="64" cy="64" r="64" transform="translate(12420 1673)" fill="#707070" opacity="0.18"/>
    <circle id="Ellipse_131" data-name="Ellipse 131" cx="64" cy="64" r="64" transform="translate(8240 1673)" fill="#707070" opacity="0.18"/>
    <circle id="Ellipse_6" data-name="Ellipse 6" cx="64" cy="64" r="64" transform="translate(298 3713)" fill="#707070" opacity="0.18"/>
    <circle id="Ellipse_267" data-name="Ellipse 267" cx="64" cy="64" r="64" transform="translate(8658 3713)" fill="#707070" opacity="0.18"/>
    <circle id="Ellipse_161" data-name="Ellipse 161" cx="64" cy="64" r="64" transform="translate(4478 3713)" fill="#707070" opacity="0.18"/>
    <circle id="Ellipse_268" data-name="Ellipse 268" cx="64" cy="64" r="64" transform="translate(12838 3713)" fill="#707070" opacity="0.18"/>
    <circle id="Ellipse_63" data-name="Ellipse 63" cx="64" cy="64" r="64" transform="translate(2388 3713)" fill="#707070" opacity="0.18"/>
    <circle id="Ellipse_269" data-name="Ellipse 269" cx="64" cy="64" r="64" transform="translate(10748 3713)" fill="#707070" opacity="0.18"/>
    <circle id="Ellipse_132" data-name="Ellipse 132" cx="64" cy="64" r="64" transform="translate(6568 3713)" fill="#707070" opacity="0.18"/>
    <circle id="Ellipse_17" data-name="Ellipse 17" cx="64" cy="64" r="64" transform="translate(716 3713)" fill="#707070" opacity="0.18"/>
    <circle id="Ellipse_270" data-name="Ellipse 270" cx="64" cy="64" r="64" transform="translate(9076 3713)" fill="#707070" opacity="0.18"/>
    <circle id="Ellipse_153" data-name="Ellipse 153" cx="64" cy="64" r="64" transform="translate(4896 3713)" fill="#707070" opacity="0.18"/>
    <circle id="Ellipse_271" data-name="Ellipse 271" cx="64" cy="64" r="64" transform="translate(13256 3713)" fill="#707070" opacity="0.18"/>
    <circle id="Ellipse_64" data-name="Ellipse 64" cx="64" cy="64" r="64" transform="translate(2806 3713)" fill="#707070" opacity="0.18"/>
    <circle id="Ellipse_272" data-name="Ellipse 272" cx="64" cy="64" r="64" transform="translate(11166 3713)" fill="#707070" opacity="0.18"/>
    <circle id="Ellipse_133" data-name="Ellipse 133" cx="64" cy="64" r="64" transform="translate(6986 3713)" fill="#707070" opacity="0.18"/>
    <circle id="Ellipse_25" data-name="Ellipse 25" cx="64" cy="64" r="64" transform="translate(1134 3713)" fill="#707070" opacity="0.18"/>
    <circle id="Ellipse_273" data-name="Ellipse 273" cx="64" cy="64" r="64" transform="translate(9494 3713)" fill="#707070" opacity="0.18"/>
    <circle id="Ellipse_134" data-name="Ellipse 134" cx="64" cy="64" r="64" transform="translate(5314 3713)" fill="#707070" opacity="0.18"/>
    <circle id="Ellipse_274" data-name="Ellipse 274" cx="64" cy="64" r="64" transform="translate(13674 3713)" fill="#707070" opacity="0.18"/>
    <circle id="Ellipse_65" data-name="Ellipse 65" cx="64" cy="64" r="64" transform="translate(3224 3713)" fill="#707070" opacity="0.18"/>
    <circle id="Ellipse_275" data-name="Ellipse 275" cx="64" cy="64" r="64" transform="translate(11584 3713)" fill="#707070" opacity="0.18"/>
    <circle id="Ellipse_135" data-name="Ellipse 135" cx="64" cy="64" r="64" transform="translate(7404 3713)" fill="#707070" opacity="0.18"/>
    <circle id="Ellipse_33" data-name="Ellipse 33" cx="64" cy="64" r="64" transform="translate(1552 3713)" fill="#707070" opacity="0.18"/>
    <circle id="Ellipse_276" data-name="Ellipse 276" cx="64" cy="64" r="64" transform="translate(9912 3713)" fill="#707070" opacity="0.18"/>
    <circle id="Ellipse_136" data-name="Ellipse 136" cx="64" cy="64" r="64" transform="translate(5732 3713)" fill="#707070" opacity="0.18"/>
    <circle id="Ellipse_66" data-name="Ellipse 66" cx="64" cy="64" r="64" transform="translate(3642 3713)" fill="#707070" opacity="0.18"/>
    <circle id="Ellipse_278" data-name="Ellipse 278" cx="64" cy="64" r="64" transform="translate(12002 3713)" fill="#707070" opacity="0.18"/>
    <circle id="Ellipse_82" data-name="Ellipse 82" cx="64" cy="64" r="64" transform="translate(7822 3713)" fill="#707070" opacity="0.18"/>
    <circle id="Ellipse_41" data-name="Ellipse 41" cx="64" cy="64" r="64" transform="translate(1970 3713)" fill="#707070" opacity="0.18"/>
    <circle id="Ellipse_279" data-name="Ellipse 279" cx="64" cy="64" r="64" transform="translate(10330 3713)" fill="#707070" opacity="0.18"/>
    <circle id="Ellipse_137" data-name="Ellipse 137" cx="64" cy="64" r="64" transform="translate(6150 3713)" fill="#707070" opacity="0.18"/>
    <circle id="Ellipse_43" data-name="Ellipse 43" cx="64" cy="64" r="64" transform="translate(4060 3713)" fill="#707070" opacity="0.18"/>
    <circle id="Ellipse_281" data-name="Ellipse 281" cx="64" cy="64" r="64" transform="translate(12420 3713)" fill="#707070" opacity="0.18"/>
    <circle id="Ellipse_83" data-name="Ellipse 83" cx="64" cy="64" r="64" transform="translate(8240 3713)" fill="#707070" opacity="0.18"/>
  </g>
</svg>
