<svg xmlns="http://www.w3.org/2000/svg" width="3696.642" height="279.867" viewBox="0 0 3696.642 279.867">
  <g id="Group_1" data-name="Group 1" transform="translate(257.392 -4364)">
    <path id="Path_3" data-name="Path 3" d="M21,0V-270H69.375L174-145.5,278.25-270H327V0H286.125V-215.625L174-82.125,61.5-215.625V0ZM367.5,0V-270H408V0Zm78,0V-7.5L552.75-135,445.5-262.5V-270h46.875l87,103.125L666-270h46.875v7.5L605.625-135,713.25-7.5V0H666L579-103.125,492.375,0Z" transform="translate(2726 4637)" fill="#00c853"/>
    <path id="Path_1" data-name="Path 1" d="M50.08-277.283q17.561.434,25.907,8.889t78.589,78.48q69.375-69.375,78.047-78.372t25.8-9q34.471.217,34.688,34.471l.217,208.125Q293.326,0,258.205.434,223.951.217,223.3-34.687v-122.49q-34.9,35.771-43.468,44.552t-25.69,8.78q-16.693,0-25.582-9T84.984-156.527v121.84Q84.768-.217,50.3,0q-34.9.217-34.687-34.687V-242.812Q15.609-277.283,50.08-277.283Zm308.719.217q34.688.217,35.338,34.254V-34.254Q393.7.217,359.232.867,324.545,0,324.545-34.254V-242.6Q324.328-277.066,358.8-277.066Zm105.8,0q18.861,1.518,30.135,14.309L598.576-130.295v-116.42q.65-29.7,29.484-30.352,39.023.65,39.457,31.219l.217,215.713Q667.518-.434,628.061,0,610.283-.217,599.01-14.309L494.73-146.338v116.2Q494.514-.217,464.6,0q-39.24,0-39.457-30.568V-246.932Q425.139-276.85,464.6-277.066Zm268.611-.65,175.605.434q32.3.434,32.52,33.6,0,35.338-35.121,35.988h-138.1v138.1H905.994q34.9.217,34.9,35.121Q940.9-.434,906.645,0H733.207Q698.736,0,698.52-33.6V-242.6Q698.736-277.066,733.207-277.717Zm51.6,139.834q.217-34.687,34.254-35.121h69.809q34.688.217,35.121,34.688-.65,34.688-35.121,34.688H819.275Q784.8-103.412,784.8-137.883Zm219.182-139.834,175.605.434q32.3.434,32.52,33.6,0,35.338-35.121,35.988h-51.814l.217,173.221Q1124.959-.434,1090.488,0,1055.8,0,1055.8-33.6l.217-174.088h-52.031q-34.687,0-34.687-34.9Q969.516-277.066,1003.986-277.717Z" transform="translate(-273 4643)" fill="#69e"/>
    <text id="_" data-name="💖" transform="translate(1066 4588)" fill="#69e" font-size="208" font-family="SegoeUIEmoji, Segoe UI Emoji"><tspan x="0" y="0">💖</tspan></text>
    <path id="Path_2" data-name="Path 2" d="M21.75,0V-270H242.625a47.613,47.613,0,0,1,34.688,14.25,46.685,46.685,0,0,1,14.438,34.5v172.5a46.685,46.685,0,0,1-14.437,34.5A47.613,47.613,0,0,1,242.625,0ZM76.125-40.5H237q8.625,0,11.25-2.812t2.625-11.063v-161.25q0-8.25-2.625-11.062T237-229.5H76.125q-8.25,0-11.062,2.813T62.25-215.625v161.25q0,8.25,2.812,11.063T76.125-40.5ZM443.625,0V-101.25L319.125-270H366.75l97.125,122.625L560.625-270h48l-124.5,168.75V0ZM636,0V-270h48.375L865.125-54.75V-270H906V0H857.625L676.5-215.625V0ZM948.75,0V-221.25A46.991,46.991,0,0,1,963-255.75,46.991,46.991,0,0,1,997.5-270h172.125a47.613,47.613,0,0,1,34.688,14.25,46.685,46.685,0,0,1,14.438,34.5V0h-40.875V-94.5H989.25V0Zm40.5-135h188.625v-80.625q0-8.25-2.625-11.062T1164-229.5H1003.125q-8.25,0-11.062,2.813t-2.812,11.063Z" transform="translate(1487 4637)"/>
  </g>
</svg>
