<svg id="Capa_1" enable-background="new 0 0 512 512" height="512" viewBox="0 0 512 512" width="512" xmlns="http://www.w3.org/2000/svg" xmlns:xlink="http://www.w3.org/1999/xlink"><linearGradient id="SVGID_1_" gradientUnits="userSpaceOnUse" x1="211" x2="211" y1="512" y2="30"><stop offset="0" stop-color="#ffe59a"/><stop offset="1" stop-color="#ffffd5"/></linearGradient><linearGradient id="SVGID_2_" gradientUnits="userSpaceOnUse" x1="256" x2="256" y1="451" y2="0"><stop offset="0" stop-color="#fd5900"/><stop offset="1" stop-color="#ffde00"/></linearGradient><g><g><g><path d="m377 61h-76v-31h-271v391h30v76c0 8.291 6.709 15 15 15h302c8.291 0 15-6.709 15-15v-421c0-8.291-6.709-15-15-15z" fill="url(#SVGID_1_)"/></g></g><g><g><path d="m497 91h-60c-8.291 0-15 6.709-15 15v202.925c0 46.172 10.928 92.432 31.582 133.784 2.549 5.083 7.734 8.291 13.418 8.291s10.869-3.208 13.418-8.291c20.654-41.353 31.582-87.612 31.582-133.784v-202.925c0-8.291-6.709-15-15-15zm-181-91h-301c-8.291 0-15 6.709-15 15v421c0 8.291 6.709 15 15 15h301c8.291 0 15-6.709 15-15v-421c0-8.291-6.709-15-15-15zm-241 91h91c8.291 0 15 6.709 15 15s-6.709 15-15 15h-91c-8.291 0-15-6.709-15-15s6.709-15 15-15zm181 270h-181c-8.291 0-15-6.709-15-15s6.709-15 15-15h181c8.291 0 15 6.709 15 15s-6.709 15-15 15zm0-60h-181c-8.291 0-15-6.709-15-15s6.709-15 15-15h181c8.291 0 15 6.709 15 15s-6.709 15-15 15zm0-60h-181c-8.291 0-15-6.709-15-15s6.709-15 15-15h181c8.291 0 15 6.709 15 15s-6.709 15-15 15zm0-60h-181c-8.291 0-15-6.709-15-15s6.709-15 15-15h181c8.291 0 15 6.709 15 15s-6.709 15-15 15z" fill="url(#SVGID_2_)"/></g></g></g></svg>