<svg height="512" viewBox="0 0 128 128" width="512" xmlns="http://www.w3.org/2000/svg"><g><path d="m92.171 117.149-25.491-50.669-2.68-5.32-2.68 5.32-25.491 50.669a3 3 0 0 0 2.681 4.351 3 3 0 0 0 2.681-1.653l22.809-45.337 22.809 45.337a3 3 0 0 0 2.681 1.653 3 3 0 0 0 2.681-4.351z" fill="#aa7e54"/><path d="m61 6.5h6v20.5h-6z" fill="#e2a76f"/><path d="m11.625 14h104.75v71.5h-104.75z" fill="#eaeaf0"/><path d="m110.375 59.251a1.75 1.75 0 0 1 -1.75-1.75v-12.418a1.75 1.75 0 0 1 3.5 0v12.417a1.75 1.75 0 0 1 -1.75 1.751z" fill="#b4b4b8"/><path d="m6.5 81h115v9h-115z" fill="#e2a76f"/></g></svg>