<svg xmlns="http://www.w3.org/2000/svg" width="6227" height="1763" viewBox="0 0 6227 1763">
  <g id="Group_8" data-name="Group 8" transform="translate(-318 -1182)">
    <rect id="Rectangle_4" data-name="Rectangle 4" width="1763" height="1763" rx="426" transform="translate(318 1182)" fill="#ffd8e2"/>
    <rect id="Rectangle_5" data-name="Rectangle 5" width="1763" height="1763" rx="426" transform="translate(2550 1182)" fill="#d8ebff"/>
    <rect id="Rectangle_6" data-name="Rectangle 6" width="1763" height="1763" rx="426" transform="translate(4782 1182)" fill="#d8ffe9"/>
    <path id="Path_41" data-name="Path 41" d="M-387.666-226.8q51.84,0,81.972,31.59t30.132,81.81q0,50.22-30.132,81.81T-387.666,0H-452.79V-226.8Zm-1.62,200.88q40.176,0,62.37-24.786t22.194-62.694q0-37.908-22.194-62.694t-62.37-24.786h-36.288V-25.92Zm211.248-127.656q31.752,0,52.326,22.032t20.574,57.672q0,5.184-.324,8.748H-226.314q1.3,17.5,16.038,30.618T-174.8-21.384a54.888,54.888,0,0,0,24.3-5.508q11.34-5.508,16.2-11.016l4.536-5.508L-112.59-25.6q-.972,1.3-2.754,3.24a98.8,98.8,0,0,1-7.776,6.966,92.094,92.094,0,0,1-12.636,8.91A81.647,81.647,0,0,1-153.09.648,74.466,74.466,0,0,1-174.8,3.888q-33.7,0-55.89-22.68t-22.194-56.052q0-33.372,20.9-56.052T-178.038-153.576ZM-225.666-87.8h93.96q-.972-14.58-13.284-27.54t-33.048-12.96q-21.708,0-33.7,12.8T-225.666-87.8ZM-83.754-27.54l18.792-17.5q.648.972,1.944,2.592t5.508,5.832a59.432,59.432,0,0,0,9.072,7.452,52.808,52.808,0,0,0,12.8,5.832A51.378,51.378,0,0,0-19.6-20.736,49.011,49.011,0,0,0,2.916-25.758Q12.8-30.78,12.8-39.2q0-9.4-8.1-14.9t-25.92-9.072q-26.244-5.184-40.5-16.362t-14.256-30.942q0-17.172,15.552-30.132t39.528-12.96a77.462,77.462,0,0,1,29.484,5.67q13.932,5.67,19.764,11.178l6.156,5.832-17.82,18.468a47.528,47.528,0,0,0-4.7-4.7q-3.078-2.754-12.96-7.29A47.369,47.369,0,0,0-20.9-128.952q-13.608,0-21.06,5.67t-7.452,13.446q0,8.424,8.586,13.608t27.7,9.072q24.948,5.508,38.88,15.876T39.69-39.852q0,20.412-17.82,32.076T-19.6,3.888A79.961,79.961,0,0,1-42.282.648,67.743,67.743,0,0,1-60.426-7.29a148.246,148.246,0,0,1-12.636-9.234,57.228,57.228,0,0,1-8.1-7.776ZM78.246,0V-149.688h27.216V0Zm.648-184.68a17.734,17.734,0,0,1-5.508-12.96,17.734,17.734,0,0,1,5.508-12.96,17.734,17.734,0,0,1,12.96-5.508,17.734,17.734,0,0,1,12.96,5.508,17.734,17.734,0,0,1,5.508,12.96,17.734,17.734,0,0,1-5.508,12.96,17.734,17.734,0,0,1-12.96,5.508A17.734,17.734,0,0,1,78.894-184.68ZM262.278,1.944V-18.792a56.974,56.974,0,0,1-8.586,9.234q-5.022,4.374-16.038,8.91A61.505,61.505,0,0,1,214,3.888q-30.456,0-51.516-22.842t-21.06-55.89q0-33.048,21.06-55.89T214-153.576a61.574,61.574,0,0,1,28.512,6.48q12.636,6.48,17.5,12.96l4.536,6.156v-21.708h24.948V.648q0,37.26-22.194,57.51t-56.538,20.25a85.472,85.472,0,0,1-34.506-7.128q-16.362-7.128-23.814-14.256L145.314,49.9l16.524-20.412a24.793,24.793,0,0,0,2.106,2.592,73.116,73.116,0,0,0,6.318,5.67,77.488,77.488,0,0,0,10.044,7.128,64.449,64.449,0,0,0,13.446,5.67,56.494,56.494,0,0,0,17.01,2.592q24.3,0,37.908-13.122T262.278,1.944Zm0-48.6v-56.376q-.648-.972-1.782-2.754a54.5,54.5,0,0,0-5.184-6.156,52.661,52.661,0,0,0-8.748-7.614,53.83,53.83,0,0,0-12.474-5.994,47.23,47.23,0,0,0-15.876-2.754q-22.356,0-35.964,15.39t-13.608,38.07q0,22.68,13.608,38.07t35.964,15.39a49.424,49.424,0,0,0,16.038-2.592,43.408,43.408,0,0,0,12.474-6.318,86.912,86.912,0,0,0,8.586-7.452,38.537,38.537,0,0,0,5.346-6.318Zm139.968-106.92q23.652,0,40.014,15.39t16.362,41.958V0H431.406V-91.692q0-18.144-10.044-27.378t-25.92-9.234a34.251,34.251,0,0,0-13.122,2.592,36.842,36.842,0,0,0-10.53,6.318,80.8,80.8,0,0,0-7.452,7.452,52.929,52.929,0,0,0-4.86,6.318l-1.3,2.592V0H330.966V-149.688h25.272v21.06q.648-.972,1.782-2.754a48.214,48.214,0,0,1,5.184-5.994,53.474,53.474,0,0,1,8.91-7.452,56.308,56.308,0,0,1,12.96-5.994A52.983,52.983,0,0,1,402.246-153.576Z" transform="translate(1200 2187)" fill="#222"/>
    <path id="Path_40" data-name="Path 40" d="M-345.384-226.8q51.84,0,81.972,31.59t30.132,81.81q0,50.22-30.132,81.81T-345.384,0h-65.124V-226.8ZM-347-25.92q40.176,0,62.37-24.786T-262.44-113.4q0-37.908-22.194-62.694T-347-200.88h-36.288V-25.92ZM-140.94-153.576q31.1,0,48.114,16.2t17.01,38.88V0h-24.948V-21.708q-.648.972-1.944,2.754a51.787,51.787,0,0,1-6.156,6.156A77.224,77.224,0,0,1-119.07-5.022a59.738,59.738,0,0,1-14.256,6.156,61.64,61.64,0,0,1-18.306,2.754A59.014,59.014,0,0,1-190.35-10.206Q-207.36-24.3-207.36-47.3q0-21.708,16.848-35.8T-148.068-97.2a88.1,88.1,0,0,1,23.49,3.078q11.178,3.078,16.362,5.994l5.184,3.24v-8.1q0-11.016-4.05-18.63t-10.53-10.854a54.709,54.709,0,0,0-12.15-4.536,50.054,50.054,0,0,0-11.178-1.3,76.28,76.28,0,0,0-21.222,3.24,96.025,96.025,0,0,0-17.334,6.48l-6.156,2.916-11.34-22.68q2.592-1.62,7.452-4.212t19.44-6.8A104.624,104.624,0,0,1-140.94-153.576ZM-145.8-20.088a47.09,47.09,0,0,0,22.356-5.67q10.692-5.67,15.552-11.178l4.86-5.832v-21.06q-14.9-10.692-39.2-10.692-17.172,0-27.54,7.614t-10.368,19.6q0,13.608,10.044,20.412T-145.8-20.088ZM36.936-153.576q23.652,0,40.014,15.39T93.312-96.228V0H66.1V-91.692q0-18.144-10.044-27.378T30.132-128.3a34.251,34.251,0,0,0-13.122,2.592,36.841,36.841,0,0,0-10.53,6.318,80.8,80.8,0,0,0-7.452,7.452,52.931,52.931,0,0,0-4.86,6.318l-1.3,2.592V0H-34.344V-149.688H-9.072v21.06q.648-.972,1.782-2.754a48.217,48.217,0,0,1,5.184-5.994,53.475,53.475,0,0,1,8.91-7.452,56.308,56.308,0,0,1,12.96-5.994A52.983,52.983,0,0,1,36.936-153.576ZM245.268-42.768l17.5,17.82q-.972,1.3-2.592,3.24a65.965,65.965,0,0,1-7.614,6.8,108.113,108.113,0,0,1-12.474,8.748A73.592,73.592,0,0,1,223.074.81a76.406,76.406,0,0,1-21.546,3.078q-33.048,0-55.08-22.68T124.416-74.844q0-33.048,22.194-55.89t54.918-22.842a75.556,75.556,0,0,1,31.752,6.8q14.9,6.8,21.384,13.284l6.48,6.8L242.676-110.16a63.826,63.826,0,0,0-4.86-5.022q-3.24-3.078-13.932-8.1a51.98,51.98,0,0,0-22.356-5.022q-22.032,0-35.964,15.39t-13.932,38.07q0,22.68,13.932,38.07t35.964,15.39a54.751,54.751,0,0,0,15.714-2.268A50.238,50.238,0,0,0,229.716-29a84.379,84.379,0,0,0,8.586-6.156,30.726,30.726,0,0,0,5.346-5.346Zm108.54-110.808q31.752,0,52.326,22.032t20.574,57.672q0,5.184-.324,8.748H305.532q1.3,17.5,16.038,30.618t35.478,13.122a54.888,54.888,0,0,0,24.3-5.508q11.34-5.508,16.2-11.016l4.536-5.508L419.256-25.6q-.972,1.3-2.754,3.24a98.8,98.8,0,0,1-7.776,6.966A92.094,92.094,0,0,1,396.09-6.48,81.647,81.647,0,0,1,378.756.648a74.466,74.466,0,0,1-21.708,3.24q-33.7,0-55.89-22.68T278.964-74.844q0-33.372,20.9-56.052T353.808-153.576ZM306.18-87.8h93.96q-.972-14.58-13.284-27.54T353.808-128.3q-21.708,0-33.7,12.8T306.18-87.8Z" transform="translate(3431 2187)" fill="#222"/>
    <path id="Path_42" data-name="Path 42" d="M-491.346,0V-226.8H-432.7q35.964,0,56.7,17.982t20.736,50.382q0,32.4-20.736,50.382t-56.7,17.982H-464.13V0Zm27.216-115.992h29.808q23.976,0,37.908-10.692t13.932-31.752q0-21.06-13.932-31.752t-37.908-10.692H-464.13Zm215.136-37.584q23.652,0,40.014,15.39t16.362,41.958V0h-27.216V-91.692q0-18.144-10.044-27.378T-255.8-128.3a34.251,34.251,0,0,0-13.122,2.592,36.842,36.842,0,0,0-10.53,6.318,80.8,80.8,0,0,0-7.452,7.452,52.929,52.929,0,0,0-4.86,6.318l-1.3,2.592V0h-27.216V-244.944h27.216v113.4Q-277.506-153.576-248.994-153.576Zm85.86,221.292L-151.47,45.36q9.4,7.776,17.82,7.776t13.446-5.508q5.022-5.508,9.882-17.5L-98.658.648l-69.984-150.336h30.78l52.488,118.26,44.712-118.26h29.484Q-86.346,39.528-89.91,48.276q-6.156,15.228-17.334,22.68a42.684,42.684,0,0,1-24.138,7.452,51.378,51.378,0,0,1-16.038-2.592,50.424,50.424,0,0,1-11.826-5.184ZM1.134-27.54l18.792-17.5q.648.972,1.944,2.592t5.508,5.832A59.432,59.432,0,0,0,36.45-29.16a52.808,52.808,0,0,0,12.8,5.832,51.378,51.378,0,0,0,16.038,2.592A49.011,49.011,0,0,0,87.8-25.758Q97.686-30.78,97.686-39.2q0-9.4-8.1-14.9T63.666-63.18q-26.244-5.184-40.5-16.362T8.91-110.484q0-17.172,15.552-30.132t39.528-12.96a77.462,77.462,0,0,1,29.484,5.67q13.932,5.67,19.764,11.178l6.156,5.832-17.82,18.468a47.528,47.528,0,0,0-4.7-4.7q-3.078-2.754-12.96-7.29a47.369,47.369,0,0,0-19.926-4.536q-13.608,0-21.06,5.67t-7.452,13.446q0,8.424,8.586,13.608t27.7,9.072q24.948,5.508,38.88,15.876t13.932,31.428q0,20.412-17.82,32.076T65.286,3.888A79.961,79.961,0,0,1,42.606.648,67.743,67.743,0,0,1,24.462-7.29a148.245,148.245,0,0,1-12.636-9.234,57.228,57.228,0,0,1-8.1-7.776ZM163.134,0V-149.688H190.35V0Zm.648-184.68a17.734,17.734,0,0,1-5.508-12.96,17.734,17.734,0,0,1,5.508-12.96,17.734,17.734,0,0,1,12.96-5.508A17.734,17.734,0,0,1,189.7-210.6a17.734,17.734,0,0,1,5.508,12.96,17.734,17.734,0,0,1-5.508,12.96,17.734,17.734,0,0,1-12.96,5.508A17.734,17.734,0,0,1,163.782-184.68ZM347.166-42.768l17.5,17.82q-.972,1.3-2.592,3.24a65.965,65.965,0,0,1-7.614,6.8,108.114,108.114,0,0,1-12.474,8.748A73.593,73.593,0,0,1,324.972.81a76.406,76.406,0,0,1-21.546,3.078q-33.048,0-55.08-22.68T226.314-74.844q0-33.048,22.194-55.89t54.918-22.842a75.556,75.556,0,0,1,31.752,6.8q14.9,6.8,21.384,13.284l6.48,6.8L344.574-110.16a63.82,63.82,0,0,0-4.86-5.022q-3.24-3.078-13.932-8.1a51.98,51.98,0,0,0-22.356-5.022q-22.032,0-35.964,15.39T253.53-74.844q0,22.68,13.932,38.07t35.964,15.39a54.751,54.751,0,0,0,15.714-2.268A50.238,50.238,0,0,0,331.614-29a84.376,84.376,0,0,0,8.586-6.156,30.727,30.727,0,0,0,5.346-5.346ZM381.51-27.54l18.792-17.5q.648.972,1.944,2.592t5.508,5.832a59.43,59.43,0,0,0,9.072,7.452,52.808,52.808,0,0,0,12.8,5.832,51.378,51.378,0,0,0,16.038,2.592,49.011,49.011,0,0,0,22.518-5.022q9.882-5.022,9.882-13.446,0-9.4-8.1-14.9t-25.92-9.072q-26.244-5.184-40.5-16.362t-14.256-30.942q0-17.172,15.552-30.132t39.528-12.96a77.462,77.462,0,0,1,29.484,5.67q13.932,5.67,19.764,11.178l6.156,5.832-17.82,18.468a47.525,47.525,0,0,0-4.7-4.7q-3.078-2.754-12.96-7.29a47.369,47.369,0,0,0-19.926-4.536q-13.608,0-21.06,5.67t-7.452,13.446q0,8.424,8.586,13.608t27.7,9.072q24.948,5.508,38.88,15.876t13.932,31.428q0,20.412-17.82,32.076T445.662,3.888a79.961,79.961,0,0,1-22.68-3.24A67.743,67.743,0,0,1,404.838-7.29,148.247,148.247,0,0,1,392.2-16.524a57.229,57.229,0,0,1-8.1-7.776Z" transform="translate(5664 2187)" fill="#222"/>
  </g>
</svg>
